<svg xmlns="http://www.w3.org/2000/svg" width="975.248" height="535.985" viewBox="0 0 975.248 535.985"><defs><style>.a{fill:#e6e6e6;}.b{fill:#fff;}.c{fill:#6c63ff;}.d{fill:#3f3d56;}.e{fill:#a0616a;}.f{fill:#2f2e41;}.g{fill:#575a89;}.h{fill:#ffb8b8;}.i{fill:#d0cde1;}.j{opacity:0.2;}</style></defs><rect class="a" width="770.706" height="493.594" transform="translate(200.43 0.437)"/><rect class="b" width="278.235" height="285.903" transform="translate(268.581 66.719)"/><rect class="b" width="278.235" height="347.246" transform="translate(650.88 72.263)"/><ellipse class="a" cx="49.841" cy="7.12" rx="49.841" ry="7.12" transform="translate(875.566 515.678)"/><ellipse class="a" cx="49.841" cy="7.12" rx="49.841" ry="7.12" transform="translate(377.26 515.838)"/><ellipse class="a" cx="114.389" cy="5.477" rx="114.389" ry="5.477" transform="translate(0 510.361)"/><rect class="c" width="770.706" height="32.742" transform="translate(200.101)"/><circle class="a" cx="6.069" cy="6.069" r="6.069" transform="translate(218.364 10.671)"/><circle class="a" cx="6.069" cy="6.069" r="6.069" transform="translate(241.399 10.671)"/><circle class="a" cx="6.069" cy="6.069" r="6.069" transform="translate(264.434 10.671)"/><path class="d" d="M960.359,362.7h-1.685V316.526A26.723,26.723,0,0,0,931.95,289.8H834.128A26.723,26.723,0,0,0,807.4,316.526v253.3a26.723,26.723,0,0,0,26.723,26.723H931.95a26.723,26.723,0,0,0,26.723-26.723V395.564h1.685Z" transform="translate(-92.587 -197.292)"/><path class="b" d="M931.386,296.15H918.617a9.481,9.481,0,0,1-8.778,13.062H853.8a9.481,9.481,0,0,1-8.778-13.062H833.093a19.957,19.957,0,0,0-19.957,19.957V569.039A19.957,19.957,0,0,0,833.093,589h98.293a19.957,19.957,0,0,0,19.957-19.957V316.106a19.956,19.956,0,0,0-19.957-19.957Z" transform="translate(-92.04 -196.687)"/><rect class="a" width="193.389" height="8.821" transform="translate(311.196 247.318)"/><rect class="c" width="193.389" height="8.821" transform="translate(311.196 275.798)"/><rect class="a" width="193.389" height="8.821" transform="translate(311.196 304.279)"/><rect class="a" width="112.897" height="8.821" transform="translate(734.846 266.564)"/><rect class="a" width="112.897" height="8.821" transform="translate(734.846 293.949)"/><rect class="a" width="112.897" height="8.821" transform="translate(734.846 321.335)"/><rect class="d" width="18.816" height="18.816" transform="translate(859.548 439.494) rotate(90)"/><rect class="c" width="18.816" height="18.816" transform="translate(829.233 439.494) rotate(90)"/><rect class="d" width="18.816" height="18.816" transform="translate(798.917 439.494) rotate(90)"/><rect class="d" width="18.816" height="18.816" transform="translate(768.603 439.494) rotate(90)"/><rect class="d" width="18.816" height="18.816" transform="translate(738.287 439.494) rotate(90)"/><rect class="c" width="62.721" height="62.721" transform="translate(758.839 152.252)"/><path class="e" d="M504.808,482.994,504,484.617l-2.436-12.178s-3.247-12.99,3.247-12.99,4.871,12.99,4.871,12.99v8.93Z" transform="translate(-121.846 -181.106)"/><path class="e" d="M602.136,481.476l.812,1.624,2.436-12.178s3.247-12.99-3.247-12.99-4.871,12.99-4.871,12.99v8.93Z" transform="translate(-112.654 -181.25)"/><path class="f" d="M383.064,358.94l-9.742,60.077,4.87,58.452,11.366-4.87-1.623-43.841,11.366-34.91,2.435,41.4-4.87,43.028,14.613,1.625,10.554-88.492-.812-30.038Z" transform="translate(35.62 34.248)"/><path class="f" d="M537.559,665.9l-5.683,8.93v19.954a2.42,2.42,0,0,0,2.033,2.388c2.786.457,7.636.782,9.333-2.047,2.436-4.059.812-12.99.812-12.99s3.247-6.495,1.624-11.366-3.247-5.683-3.247-5.683Z" transform="translate(-118.876 -161.485)"/><path class="f" d="M560.147,673.307l1.624,2.436s2.436,2.436.812,4.059a31.732,31.732,0,0,0-3.247,4.059s-8.93,2.435-8.93-.812V672.5Z" transform="translate(-117.108 -160.778)"/><circle class="e" cx="10.762" cy="10.762" r="10.762" transform="translate(429.352 305.588)"/><path class="e" d="M395.256,291.867l-.812,15.426,14.613.812-.812-15.426Z" transform="translate(37.635 27.848)"/><path class="g" d="M567.81,513.061l-2.3-5.63s-10.685-4.112-13.932-.053l-1.624,4.871L536.96,509l-7.307,16.237,6.495,46.275s17.049,21.92,39.781.812l6.495-43.84-4.871-17.049Z" transform="translate(-119.088 -176.703)"/><path class="g" d="M417.049,312.229l1.623-3.248,16.237-9.743,9.909-29.332,7.668,3.286L443.84,308.17,420.3,330.089Z" transform="translate(39.792 25.753)"/><path class="g" d="M386.492,308.019l-1.623-1.623-17.049-10.554-12.178-24.355-9.742,3.247,10.553,30.038,25.98,21.109Z" transform="translate(33.003 25.903)"/><path class="f" d="M565.6,479.467l1.76-.88-2.639-.88v-.88s-13.2-5.279-14.956,3.519a17.684,17.684,0,0,0,0,21.115V504.1l14.076,1.76,1.76-5.279S574.4,484.746,565.6,479.467Z" transform="translate(-117.503 -179.597)"/><path class="h" d="M271.041,565.16l-3.128,1.564s-12.511,5.734-8.862,8.862,13.554-3.128,13.554-3.128l2.085-2.607Z" transform="translate(-144.971 -171.02)"/><path class="f" d="M202.608,359.1,192.94,424l-14.6,45.353-7.819-3.649,7.3-62.035-20.852-17.725,1.564-26.065Z" transform="translate(14.977 34.263)"/><path class="f" d="M323.638,663.334s8.862-4.692,9.384,2.085l-1.043,6.777s3.128,11.99-7.3,9.384-3.128-10.426-3.128-10.426Z" transform="translate(-139.18 -161.803)"/><path class="f" d="M318.6,583.72l-6.777,5.734s0,35.449,4.692,40.662,34.406,31.8,35.449,32.843,5.734-10.426,5.734-10.426L329.543,619.69l2.085-20.331Z" transform="translate(-139.872 -169.249)"/><path class="f" d="M351.251,645.129s8.341-1.564,8.341,4.17a126.238,126.238,0,0,0,1.043,13.554s2.085,18.246-4.692,15.639-9.384-20.852-9.384-20.852a7.765,7.765,0,0,1,3.128-3.649C351.772,652.948,351.251,645.129,351.251,645.129Z" transform="translate(-136.557 -163.408)"/><path class="h" d="M173.515,288.424l1.564,19.289-4.17,7.3L159.44,304.063l-1.043-14.6Z" transform="translate(15.113 27.519)"/><circle class="h" cx="12.511" cy="12.511" r="12.511" transform="translate(166.733 297.176)"/><path class="i" d="M169.753,306.874l5.213-15.118,9.383,10.426,17.2,66.206-13.033,7.82-5.733-8.342-1.043,10.948L156.2,373.6l-2.085-69.856,5.21-7.338Z" transform="translate(14.705 27.837)"/><path class="f" d="M163.681,380.491l-3.127-84.452-6.777,5.213-12.512,8.34,8.342,29.715,2.606,31.278Z" transform="translate(13.478 28.246)"/><path class="f" d="M147.638,308.933l-3.65-.521-10.426,30.757L112.71,365.235l7.82,8.34,23.98-23.459,8.863-19.288Z" transform="translate(10.754 29.427)"/><path class="h" d="M351.575,565.6l-.711,3.424s-3.254,13.373,1.462,12.448,5.946-12.575,5.946-12.575l-.753-3.252Z" transform="translate(-136.251 -170.978)"/><path class="f" d="M172.443,290.983l25.837,10.23-3.127,31.278,6.256,34.407-6.256,6.776-23.131-78.261Z" transform="translate(16.413 27.764)"/><path class="f" d="M320.4,469.041l3.673-1.836v1.836l2.448-1.224v3.06s9.181,6.733,7.345,14.69-1.836,8.569-1.836,8.569-2.321-15.132-11.5-12.684-9.92,2.891-12.369,9.623l-.664,2.888S297.144,470.265,320.4,469.041Z" transform="translate(-140.504 -180.366)"/><path class="f" d="M193.025,300.322h4.17l6.777,36.492v31.8l-8.34-1.564-6.777-47.96Z" transform="translate(18.019 28.655)"/><rect class="c" width="153.709" height="106.815" transform="translate(3.872 406.148)"/><path class="b" d="M231.381,595.148a32.566,32.566,0,1,0,32.566,32.565,32.566,32.566,0,0,0-32.566-32.565Zm0,9.77a9.77,9.77,0,1,1-9.77,9.77,9.77,9.77,0,0,1,9.77-9.77Zm0,47.032a23.724,23.724,0,0,1-19.539-10.427c.157-6.513,13.026-10.1,19.539-10.1s19.383,3.585,19.539,10.1a23.763,23.763,0,0,1-19.539,10.427Z" transform="translate(-150.654 -168.158)"/><rect class="a" width="192.793" height="110.637" transform="translate(311.302 99.581)"/><path class="h" d="M963.536,498.174l.893-5.762s5.207-11.836,1.091-12.474-7.548,10.63-7.548,10.63l1.506,12.034Z" transform="translate(-78.221 -179.153)"/><path class="g" d="M851.19,324.1,814.4,316.713,810.13,289.92l-10.828-.836.529,34.64,31.961,16.757Z" transform="translate(76.264 27.582)"/><path class="j" d="M851.19,324.1,814.4,316.713,810.13,289.92l-10.828-.836.529,34.64,31.961,16.757Z" transform="translate(76.264 27.582)"/><rect class="c" width="112.897" height="8.821" transform="translate(940.277 311.935) rotate(180)"/><path class="h" d="M957.07,496.377l.007-5.831s3.347-12.49-.817-12.5-5.845,11.654-5.845,11.654l3.317,11.665Z" transform="translate(-78.942 -179.331)"/><path class="f" d="M1001.656,512.969l5.047-1.23a12.993,12.993,0,0,0,12.752-15.567h0a16.983,16.983,0,0,0-16.962-17h0a16.984,16.984,0,0,0-17.005,16.962h0a13.5,13.5,0,0,0,16.167,16.84Z" transform="translate(-75.645 -179.224)"/><path class="f" d="M818.254,382.037l4.109,44.984,7.44,44.155,12.494.015-1.611-43.315-6.6-52.483Z" transform="translate(78.072 35.817)"/><path class="f" d="M986.867,665.9l-8.336,4.987S965.2,672.54,967.7,676.708s31.65,1.706,31.652.04-.819-10.829-2.485-10.831Z" transform="translate(-77.323 -161.407)"/><path class="f" d="M1009.548,584.008s-.234,6.431-6.078,16.419l.794,30.82L1034.2,669.6l-10.84,9.149-36.6-41.693-9.1-49.988,11.676-11.646Z" transform="translate(-76.342 -170.04)"/><path class="f" d="M1028.045,661.394s9.993,1.678,8.322,5.841-5.86,23.315-16.685,20.8c0,0-5-.006-3.328-3.336a60.218,60.218,0,0,1,3.339-5.826l.013-10.828Z" transform="translate(-72.683 -161.838)"/><circle class="h" cx="12.494" cy="12.494" r="12.494" transform="translate(908.108 309.603)"/><path class="h" d="M846.89,301.653l-.018,14.159-13.327-.016,1.684-14.157Z" transform="translate(79.531 28.78)"/><path class="g" d="M986.674,515.434l4.038-.992,12.62,1.013s6.655,6.672,5.82,8.337-5.051,42.474-5.051,42.474l7.46,29.162-26.656,1.632-13.325-1.683,2.565-52.472s-5.813-14.167,1.689-18.323A32.81,32.81,0,0,0,986.674,515.434Z" transform="translate(-76.922 -175.859)"/><path class="g" d="M849.123,315.455l-37.48-1.713-8.3-25.831-10.829.818,5.787,34.158,34.136,11.7Z" transform="translate(75.617 27.471)"/><circle class="f" cx="8.061" cy="8.061" r="8.061" transform="translate(936.659 296.77)"/><path class="f" d="M1010.653,480.428a8.057,8.057,0,0,1,9.647-7.892,8.057,8.057,0,1,0-5.026,15.185,8.054,8.054,0,0,1-4.622-7.293Z" transform="translate(-73.371 -179.931)"/><path class="f" d="M1006.371,484.021l-10.867-2-8.357,5.238a12.678,12.678,0,0,0-5.84,12.372l8.37-2.122,1.874-4.7,2.232,3.659,9.056,15.833,9.169-4.986,5.842-9.155Z" transform="translate(-76.004 -178.952)"/><rect class="b" width="2.19" height="222.283" transform="translate(310.756 100.532) rotate(-60.15)"/><rect class="b" width="222.283" height="2.19" transform="matrix(0.867, -0.498, 0.498, 0.867, 310.752, 209.262)"/><rect class="b" width="2.191" height="88.301" transform="translate(758.556 152.933) rotate(-45)"/><rect class="b" width="88.301" height="2.191" transform="translate(758.556 213.823) rotate(-45)"/></svg>