<svg xmlns="http://www.w3.org/2000/svg" width="625" height="434.764" viewBox="0 0 625 434.764"><defs><style>.a,.g{fill:#6c63ff;}.a,.h{opacity:0.1;}.b{fill:#3f3d56;}.c{fill:#fff;}.d{fill:#192534;}.e{fill:#fbbebe;}.f{fill:#f2f2f2;}</style></defs><g transform="translate(0.234)"><rect class="a" width="74.701" height="22.582" rx="7.43" transform="translate(88.621 174.007)"/><rect class="a" width="74.701" height="22.582" rx="7.43" transform="translate(166.796 196.595)"/><rect class="a" width="74.701" height="22.582" rx="7.43" transform="translate(244.977 219.178)"/><rect class="a" width="74.701" height="22.582" rx="7.43" transform="translate(88.621 140.134)"/><rect class="a" width="74.701" height="22.582" rx="7.43" transform="translate(166.796 162.716)"/><rect class="a" width="74.701" height="22.582" rx="7.43" transform="translate(244.977 185.304)"/><rect class="a" width="74.701" height="22.582" rx="7.43" transform="translate(331.838 174.007)"/><rect class="a" width="74.701" height="22.582" rx="7.43" transform="translate(410.013 196.595)"/><rect class="a" width="74.701" height="22.582" rx="7.43" transform="translate(488.194 219.178)"/><rect class="a" width="74.701" height="22.582" rx="7.43" transform="translate(331.838 140.134)"/><rect class="a" width="74.701" height="22.582" rx="7.43" transform="translate(410.013 162.716)"/><rect class="a" width="74.701" height="22.582" rx="7.43" transform="translate(488.194 185.304)"/><rect class="a" width="74.701" height="22.582" rx="7.43" transform="translate(88.621 94.964)"/><rect class="a" width="74.701" height="22.582" rx="7.43" transform="translate(166.796 117.546)"/><rect class="a" width="74.701" height="22.582" rx="7.43" transform="translate(244.977 140.134)"/><rect class="a" width="74.701" height="22.582" rx="7.43" transform="translate(88.621 61.084)"/><rect class="a" width="74.701" height="22.582" rx="7.43" transform="translate(166.796 83.672)"/><rect class="a" width="74.701" height="22.582" rx="7.43" transform="translate(244.977 106.255)"/><rect class="a" width="74.701" height="22.582" rx="7.43" transform="translate(331.838 94.964)"/><rect class="a" width="74.701" height="22.582" rx="7.43" transform="translate(410.013 117.546)"/><rect class="a" width="74.701" height="22.582" rx="7.43" transform="translate(488.194 140.134)"/><rect class="a" width="74.701" height="22.582" rx="7.43" transform="translate(331.838 61.084)"/><rect class="a" width="74.701" height="22.582" rx="7.43" transform="translate(410.013 83.672)"/><rect class="a" width="74.701" height="22.582" rx="7.43" transform="translate(488.194 106.255)"/><ellipse class="a" cx="312.5" cy="57.5" rx="312.5" ry="57.5" transform="translate(-0.234 319.764)"/><path class="b" d="M220.285,320.786,194,481.925l118.854-12.571-5.143-13.714-92.855,7.714L236.57,320.5Z" transform="translate(-83.094 -137.361)"/><path class="b" d="M186,.571,346,0l46.285,350.278L231.713,371.991Z" transform="translate(-79.665)"/><path class="c" d="M216.5,24.5H345.64l45.142,325.707-133.14,18.285Z" transform="translate(-92.737 -10.5)"/><path class="b" d="M467.755,636.04a31.845,31.845,0,0,0,2.474,4.634c3.086,4.126,8.943,4.771,13.337,7.463a1.228,1.228,0,0,1,.52.5c.2.474-.246.971-.674,1.269-3.331,2.337-7.7,2.388-11.777,2.36a15.711,15.711,0,0,1-4.074-.388c-2.154-.571-4-2.074-6.126-2.686a16.246,16.246,0,0,0-3.366-.474l-4.463-.3a10.52,10.52,0,0,1-3.48-.646,3.52,3.52,0,0,1-2.194-2.6,7.47,7.47,0,0,1,.52-2.794c.571-2.194.394-4.846,2.1-6.343a6.488,6.488,0,0,1,2.371-1.143,75.646,75.646,0,0,1,9.491-2.526C465.063,631.846,466.583,633.789,467.755,636.04Z" transform="translate(-222.2 -310.985)"/><path class="b" d="M381.722,648.911c.114,1.217.149,2.611-.731,3.463a3.9,3.9,0,0,1-1.914.857c-4.223.983-8.931,1.052-12.605-1.246a3.481,3.481,0,0,1-.994-.851,3.1,3.1,0,0,1-.5-1.571,13.48,13.48,0,0,1,.817-4.771,83.729,83.729,0,0,0,2.428-11.285c.046-.314,10.783,1.714,11.5,2.777.9,1.314.9,4.469,1.143,6.034Q381.4,645.6,381.722,648.911Z" transform="translate(-186.647 -311.496)"/><path class="d" d="M417.237,386.393l2.857,26.565a92.474,92.474,0,0,1,.777,16.331c-.457,6.286-2.217,12.571-1.474,18.8.291,2.423.954,4.8,1.051,7.24a39.422,39.422,0,0,1-.246,4.857C418.911,476.3,423,492.3,425.283,508.3a20.877,20.877,0,0,1,.24,5.988c-.3,2.029-.891,4.691.914,5.651l-16.96,6.148c-2.166-2.714-.731-6.937-1.143-10.383-.377-3.1-2.08-5.868-2.989-8.857a41.839,41.839,0,0,1-1.263-8.3c-1.48-15.183-6.023-29.971-7.086-45.188a20.571,20.571,0,0,0-.571-4.36,40.551,40.551,0,0,0-2.549-5.32,37.517,37.517,0,0,1-2.526-8.486l-3.629-17c-3.668,5.463-3.52,12.571-4.246,19.12-1.017,9.143-3.291,18.131-5.143,27.159a53.967,53.967,0,0,0-.966,5.886c-.48,5.3.474,10.646-.034,15.937-.571,6.131-3.148,12.114-2.526,18.245.343,3.394,1.646,6.606,2.526,9.9s1.314,6.9-.029,10.04a30.856,30.856,0,0,0-14.691-1.623c-5.446-5.571-6.411-13.343-6.783-21.142s.526-15.611-.446-23.337c-.286-2.286-.731-4.514-.806-6.794-.24-7.308,3.274-14.148,5.023-21.251a44.97,44.97,0,0,0,.44-19.514c-.857-4.268-2.331-8.411-2.857-12.737-.714-6.063.5-12.171,1.714-18.16.817-4.04,1.629-8.08,2.554-12.1.994-4.314,2.177-8.72,4.834-12.251,4.251-5.651,11.8-8.16,18.857-7.611s13.645,3.76,19.474,7.76A73.413,73.413,0,0,1,417.237,386.393Z" transform="translate(-182.197 -197.671)"/><path class="e" d="M414.969,214.557a4.931,4.931,0,0,0-.657,1.68c-.143,1.171.571,2.246,1.143,3.269a17.8,17.8,0,0,1,1.674,4.171,6.857,6.857,0,0,1,.246,2.783,6.712,6.712,0,0,1-.743,2,10.175,10.175,0,0,1-4.96,4.977,8.737,8.737,0,0,1-5.366.217,16.291,16.291,0,0,1-4.909-2.331,14.919,14.919,0,0,1-3.36-2.914,20.143,20.143,0,0,1-2.32-4c-1.189-2.486-2.394-5.143-2.177-7.868a2.627,2.627,0,0,1,.137-.726,3.9,3.9,0,0,1,.766-1.143,14.914,14.914,0,0,0,3.5-10.371l8.326,1.891c1.834.417,3.668.834,5.48,1.354,1.486.429,3.771,1.023,4.737,2.349S415.626,213.346,414.969,214.557Z" transform="translate(-198.888 -127.559)"/><circle class="e" cx="15.131" cy="15.131" r="15.131" transform="translate(196.493 55.319)"/><path class="f" d="M402.306,239.194a8.753,8.753,0,0,1,3.286-3.166c1.263-.88,2.543-2.006,2.789-3.531a2.53,2.53,0,0,1,.251-.994c.486-.731,1.64-.366,2.331.171a17.906,17.906,0,0,1,3.937,4.977,42.527,42.527,0,0,1,3.686,6.966c1.606,4.234,1.8,8.857,1.977,13.377.16,4.114.314,8.291-.686,12.28-.629,2.526-1.714,4.977-1.777,7.577-.189,9.445-3.468,18.474-3.7,27.919a72.429,72.429,0,0,0,.411,8.177l.537,6.131q-12.463-.714-24.857-2.189a47.545,47.545,0,0,0-1.783-8.291,179.955,179.955,0,0,1-5.777-34.136c-.44-6.126-.891-12.228-1.571-18.331-.611-5.548-1.811-11.131-1.091-16.668a23.011,23.011,0,0,1,2.343-7.211,4.754,4.754,0,0,1,1.829-2.189,4.943,4.943,0,0,1,1.291-.417,23.965,23.965,0,0,1,3.931-.463,2.709,2.709,0,0,1,.96.091,3.012,3.012,0,0,1,1.309,1.269,23.726,23.726,0,0,0,10.371,8.651Z" transform="translate(-193.117 -138.219)"/><path class="g" d="M406.72,243.7c1.063,1.52,3.314,1.88,4.3,3.429a8.986,8.986,0,0,1,.749,2.04c.6,1.914,1.811,3.577,2.548,5.446,1.063,2.686,1.091,5.657,1.1,8.543a28.268,28.268,0,0,1-.526,6.857c-.343,1.411-.9,2.754-1.314,4.148a20.286,20.286,0,0,0-.766,7.314,3,3,0,0,0,.411,1.514,3.286,3.286,0,0,0,1.463.995,10.83,10.83,0,0,0,5.257,1.32,1.925,1.925,0,0,0,1.046-.349,2.327,2.327,0,0,0,.514-.68l1.143-1.931c1.034-1.766,2.114-3.743,1.714-5.76a11.422,11.422,0,0,0-1.3-2.954,34.724,34.724,0,0,1-1.863-4.611c-1.823-5.24-3.669-10.554-4.08-16.085a14.136,14.136,0,0,1,.686-6.24,17.774,17.774,0,0,1,2.011-3.48,1.491,1.491,0,0,0-1.606-.543,9.556,9.556,0,0,0-1.663.691,7.889,7.889,0,0,1-5.24-.034,9.158,9.158,0,0,0-2.4-.811C408.674,242.547,406.76,243.77,406.72,243.7Z" transform="translate(-204.548 -143.938)"/><path class="f" d="M425.851,237.9c-.343-.274-.874-.526-1.177-.206a1.325,1.325,0,0,0-.217.463,3.075,3.075,0,0,1-1.966,1.5c-.794.309-1.651.48-2.131-.109a1.291,1.291,0,0,1,.074-1.526,4.663,4.663,0,0,1,1.251-1.057,12.216,12.216,0,0,0,4.983-7.84,3.725,3.725,0,0,1,1.366,2.36c.189.909.211,1.846.4,2.754a38.6,38.6,0,0,1,1.046,3.84,20.073,20.073,0,0,1,0,2.114,12.98,12.98,0,0,0,.24,2.046C428.382,240.827,427.439,239.164,425.851,237.9Z" transform="translate(-210.301 -138.201)"/><path class="f" d="M403.294,229.9c-.571-.543-1.143-1.057-1.714-1.611a22.228,22.228,0,0,1-5.526-8.771,3.3,3.3,0,0,0-1.554,2.286,3.5,3.5,0,0,0,.754,1.857,28.959,28.959,0,0,1,4.188,11.205,3.337,3.337,0,0,1,2.886-1.537c.9,0,4.954,2.4,5.246,1.794C408,234.177,403.98,230.548,403.294,229.9Z" transform="translate(-199.31 -134.082)"/><path class="b" d="M390.573,226.246a47.427,47.427,0,0,0,19.188,11.617,4.308,4.308,0,0,1,1.937.983,3.96,3.96,0,0,1,.806,1.771,100.552,100.552,0,0,1,2.326,16.7,9.3,9.3,0,0,1-.057,2.789,8.8,8.8,0,0,1-2.446,3.834c-3.28,3.514-7.023,7.188-7.577,11.965a19.117,19.117,0,0,1-.326,2.743c-.286,1.063-.92,2-1.309,3.034-1.909,5.091,2.406,11.257-.223,16a28.879,28.879,0,0,1,2.891,8.72,11.347,11.347,0,0,0,.783,3.36c.783,1.634,2.394,2.674,3.663,4,3.868,3.966,4.343,10.034,4.571,15.571.143,3.12.1,6.7-2.286,8.748a10,10,0,0,1-5.057,1.88c-2.394.4-5,.686-7.12-.5a11.439,11.439,0,0,1-3.543-3.754c-1.874-2.726-3.754-5.446-5.531-8.24-2.811-4.406-5.463-9.44-4.651-14.605a33.929,33.929,0,0,1-3.937,15.217,20.941,20.941,0,0,1-11.84,9.971c-5.068,1.52-10.994.446-14.771-3.257a19.965,19.965,0,0,1-3.148-4.246,41.44,41.44,0,0,1-4.651-11.834,4.6,4.6,0,0,1,.114-3.251c.257-.457.651-.817.92-1.269.9-1.537.034-3.474-.84-5.04-1.331.126-2.286-1.44-2.166-2.777a11.721,11.721,0,0,1,1.486-3.714c1.657-3.588,1.291-7.766.491-11.634s-1.994-7.714-1.9-11.663c.1-4.177-2.909-7.937-5.2-11.428-1.28-1.966-2.771-3.794-3.886-5.857a18.9,18.9,0,0,1-1.5-14.148,37.079,37.079,0,0,1,3.131-6.983l1.886-3.537a5.834,5.834,0,0,1,4-3.429l13.045-5.143a19.627,19.627,0,0,0,4.708-2.354c1.594-1.2,2.783-2.857,4.3-4.137a2.411,2.411,0,0,1,1.714-.749c1.223.109,1.657,1.651,1.783,2.857.286,2.7,2.286,4.983,2.966,7.606,3.68,14.485,11.468,27.845,13.605,42.633a154.967,154.967,0,0,1,7.874-16.971,14.088,14.088,0,0,0,1.217-2.463,10.514,10.514,0,0,0,.406-3.823,50,50,0,0,0-2.12-10.948C393.036,235.6,391.893,231.091,390.573,226.246Z" transform="translate(-173.83 -134.973)"/><path class="b" d="M464.456,297.246c.251,2.434.5,4.874.949,7.28.526,2.783,1.326,5.5,2.12,8.223a21.4,21.4,0,0,0,1.657,4.417,5.682,5.682,0,0,1,.611,1.309c.28,1.143-.36,2.286-.634,3.429-.823,3.428,1.646,7.24.091,10.4a19.862,19.862,0,0,0-1.594,2.783,8.342,8.342,0,0,0,.189,3.668c.486,3.428-.686,6.914-1.84,10.211l-1.966,5.566a51.626,51.626,0,0,0-6.086-9.571c-.886-1.029-1.851-1.983-2.668-3.069a21.521,21.521,0,0,1-2.857-5.566,48.244,48.244,0,0,1-2.954-14.7,10.05,10.05,0,0,1,.486-4.228,22.5,22.5,0,0,1,1.269-2.286c1.531-2.76,1.846-6.028,1.817-9.183a75.694,75.694,0,0,1,0-9.457,21.636,21.636,0,0,1,2.286-7.5,10.646,10.646,0,0,1,3.1-3.868,5.588,5.588,0,0,1,3.428-1.114c1.869.109,1.44,1.714,1.6,3.263Z" transform="translate(-222.85 -161.712)"/><path class="b" d="M323.973,282.368q-1.748,5.143-3.154,10.377-1.371,5.143-2.451,10.343a22.15,22.15,0,0,0-.617,4.651,20.811,20.811,0,0,0,.931,5.377c3.68,13.262,10.388,25.5,17.942,37a33.3,33.3,0,0,1,7.6-6.937,1.628,1.628,0,0,0,.571-.571,1.548,1.548,0,0,0-.183-1.337c-2.086-4.274-5.388-8.04-6.428-12.685-.434-1.931-.451-3.943-.943-5.863-.634-2.486-2.051-4.76-2.377-7.308-.349-2.777.571-5.806-.731-8.268,2.657-1.034,4.194-3.771,5.32-6.394a35.023,35.023,0,0,0,2.56-8.406,25.292,25.292,0,0,0-3.091-16.085,25.716,25.716,0,0,0-5.171-6.491c-.68-.611-2.286-2.366-3.274-2.349-1.32.029-1.743,2.166-2.12,3.126C326.83,274.465,325.321,278.391,323.973,282.368Z" transform="translate(-166.416 -154.611)"/><path class="e" d="M360.983,401.454c.171.126.366.3.32.5s-.211.257-.36.343a4.434,4.434,0,0,0-1.646,2.229,62.219,62.219,0,0,0-2.48,6.566,28.781,28.781,0,0,0-4.48-5.228c-1.3-1.2-2.76-2.337-3.457-3.96,0-.046,2.994-2.257,3.268-2.5.84-.749,1.9-2.823,2.766-3.28.983-.514,1.92,1.5,2.669,2.314a22.692,22.692,0,0,0,3.4,3.011Z" transform="translate(-179.758 -209.738)"/><path class="d" d="M424.3,171.834a2.806,2.806,0,0,0-.709-2.063,2.7,2.7,0,0,0-1.714-.474c-3.331-.109-6.777.451-9.92-.669-2.068-.737-3.834-2.154-5.851-3.034s-4.6-1.114-6.228.366c-1.234,1.143-1.571,2.9-2,4.514a26.467,26.467,0,0,1-4.931,9.783,6.07,6.07,0,0,1-3.371-3.314c-2.429-4.948-1.234-10.857.491-16.1.571-1.76,1.206-3.5,1.84-5.24l1.394-3.84a7.5,7.5,0,0,0,4.777-2.377l.6,1.457a7.6,7.6,0,0,0,4.286-1.514,2.323,2.323,0,0,0,2.714.851c1-.291,1.863-.851,2.857-1.143,2.657-.857,5.491.463,8.28.611a33.133,33.133,0,0,1,3.537.1c3.291.531,5.617,3.628,6.623,6.806.669,2.114,1.223,4.714,3.309,5.463.046.8-1.371.954-1.491,1.714a1.314,1.314,0,0,0,.172.726l1.914,4.108a4.754,4.754,0,0,1-2.766-.137C427.253,170.457,424.391,173.383,424.3,171.834Z" transform="translate(-196.613 -103.75)"/><path class="e" d="M618.1,191.344a75.062,75.062,0,0,1,2.286,9.56c.411,2.423.651,5.114-.737,7.137,5.291-7.96,10.817-16.16,18.857-21.3a17.217,17.217,0,0,1-4.486-13.28c.046-.48-6.6,2.029-7.108,2.314-2.331,1.3-4.468,2.909-6.743,4.3-1.177.714-6.08,2.406-6.125,3.428,0,.657,1.949,2.669,2.314,3.36A26.1,26.1,0,0,1,618.1,191.344Z" transform="translate(-293.402 -114.317)"/><path class="c" d="M639.263,726.9a8.857,8.857,0,0,0-9.051-.686c-2.589,1.337-4.331,3.869-6.686,5.583-4.046,2.937-9.388,3.171-14.125,4.76a4.815,4.815,0,0,0-3.126,2.286,4.057,4.057,0,0,0,.234,3.183,8.24,8.24,0,0,0,3.92,4.04c2.126,1.017,4.571,1.063,6.926,1.091l20.457.24a167.555,167.555,0,0,1,18.857.931c1.457.183,3.034.383,4.32-.331,2.091-1.143,2.331-4.034,2.171-6.417a58.893,58.893,0,0,0-4-17.6c-.246-.623-.571-1.331-1.263-1.446a2.057,2.057,0,0,0-1.36.434c-5.771,3.429-13.08,5.366-19.217,2.623" transform="translate(-289.98 -349.667)"/><path class="b" d="M673,500.784c-2.286,13.274-.794,26.914,1.777,40.13a69.947,69.947,0,0,0,1.868,7.794c.92,2.914,2.16,5.714,3.023,8.646,2.194,7.428,1.886,15.371,1.56,23.125l-1.5,35.285c-.126,2.96-.24,5.988.651,8.811.36,1.143.8,2.571-.109,3.343a2.548,2.548,0,0,1-1.206.463,18.663,18.663,0,0,1-12-1.8l-.406-35.645c-.126-10.988-.257-22.022-1.948-32.873-1.343-8.628-3.674-17.142-3.829-25.874-.16-9.143,2.08-18.165,4.366-27.028.491-1.9,2.286-3.286,3.76-4.571a4.624,4.624,0,0,1,1.829-1.108C671.524,499.293,672.575,500.207,673,500.784Z" transform="translate(-313.475 -254.058)"/><path class="h" d="M673,500.784c-2.286,13.274-.794,26.914,1.777,40.13a69.947,69.947,0,0,0,1.868,7.794c.92,2.914,2.16,5.714,3.023,8.646,2.194,7.428,1.886,15.371,1.56,23.125l-1.5,35.285c-.126,2.96-.24,5.988.651,8.811.36,1.143.8,2.571-.109,3.343a2.548,2.548,0,0,1-1.206.463,18.663,18.663,0,0,1-12-1.8l-.406-35.645c-.126-10.988-.257-22.022-1.948-32.873-1.343-8.628-3.674-17.142-3.829-25.874-.16-9.143,2.08-18.165,4.366-27.028.491-1.9,2.286-3.286,3.76-4.571a4.624,4.624,0,0,1,1.829-1.108C671.524,499.293,672.575,500.207,673,500.784Z" transform="translate(-313.475 -254.058)"/><path class="b" d="M606.829,425c-.846,3.48.949,7.086.749,10.663-.114,2.166-.966,4.326-.571,6.451s1.914,3.726,2.726,5.674a15.394,15.394,0,0,1,.926,5.074c.234,4.274.046,8.571-.114,12.828-.269,7.143-.469,14.325.474,21.405a66.964,66.964,0,0,0,4.954,17.8,30.854,30.854,0,0,1,1.846,4.794,34.222,34.222,0,0,1,.629,4.651,47.254,47.254,0,0,0,4.04,14.691c1.457,3.183,4,5.714,4.806,9.091.766,3.234.251,6.646.806,9.92.406,2.428,1.394,4.726,1.943,7.125.714,3.1.7,6.32,1.057,9.485,1.029,9.143,5.183,18.285,2.7,27.154-.5,1.783-1.269,3.594-.92,5.411a6.751,6.751,0,0,1,.411,2.657,12.6,12.6,0,0,1-1.04,2.051,3.77,3.77,0,0,0,1.051,3.96,11.25,11.25,0,0,0,3.714,2.194c4.211,1.8,8.571,3.629,13.143,3.589a3.532,3.532,0,0,0,1.617-.3,4,4,0,0,0,1.577-2.217l2.343-5.794a2.485,2.485,0,0,0,.177-2.177,4.059,4.059,0,0,0-.983-.914c-1.891-1.594-1.463-4.571-.96-6.966a101.632,101.632,0,0,0,2.126-18.685c.251-12.525-1.811-24.977-3.868-37.336a77.777,77.777,0,0,0-2.857-12.725c-1.423-4.114-3.52-8.074-3.177-12.348.366-4.617-.834-9.457,0-14.011s2.154-9.011,3.006-13.56a140.182,140.182,0,0,0,1.714-17.908,17.322,17.322,0,0,1,1.469-7.143c.669-1.269,1.64-2.354,2.388-3.583,1.931-3.194,2.24-7.154,4.086-10.4a36.372,36.372,0,0,0,2.72-4.537,12.677,12.677,0,0,0,.7-4.034,47.99,47.99,0,0,0-.571-10.314,67.113,67.113,0,0,0-31.428-7.291,37.283,37.283,0,0,0-12.32,1.937C614.177,422.75,610.772,424.7,606.829,425Z" transform="translate(-290.214 -219.755)"/><path class="c" d="M626.15,744.548c-1.68,2.091-1.566,5.08-2.64,7.543-1.3,2.988-4.206,4.9-6.96,6.646l-17.142,10.857a4.778,4.778,0,0,0-2.286,2.337,3.748,3.748,0,0,0,.086,2.051,8.9,8.9,0,0,0,5.989,6.08,17.708,17.708,0,0,0,4.634.474l7.708.1a45.154,45.154,0,0,0,7.034-.274c2.137-.309,4.217-.92,6.343-1.309,3.868-.7,7.846-.64,11.72-1.32a61.963,61.963,0,0,0,7.017-1.811,27.988,27.988,0,0,0,8.051-3.377,4.179,4.179,0,0,0,1.549-1.669,4.927,4.927,0,0,0-.046-3.023l-3.68-16.171a9.639,9.639,0,0,0-1.44-3.777,3.3,3.3,0,0,0-3.56-1.343,7.537,7.537,0,0,0-1.48.891,9.088,9.088,0,0,1-6.531,1.057,10.289,10.289,0,0,1-4.5-1.606c-.88-.726-1.143-1.851-1.891-2.674a5.366,5.366,0,0,0-7.971.314Z" transform="translate(-286.107 -358.271)"/><circle class="e" cx="20.645" cy="20.645" r="20.645" transform="translate(308.284 33.508)"/><path class="d" d="M600.2,141.685c1.977-1.109,1.977-4.3,4-5.366s4.32.783,5.617,2.646a24.338,24.338,0,0,1,3.857,9.068,4.563,4.563,0,0,0,1.051,2.583,4.045,4.045,0,0,0,2.5.817q3.914.389,7.84.709c2.914.234,5.988.423,8.634-.829a6.286,6.286,0,0,0,2.594-2.149,9.67,9.67,0,0,0,1.108-2.9c1.366-5.194,2.743-10.451,2.857-15.823a12.775,12.775,0,0,0-1.217-6.457c-.623-1.143-1.537-2.137-1.794-3.394s.571-2.857,1.874-2.72a7.692,7.692,0,0,1-3.429-.651,2.634,2.634,0,0,1-1.434-2.92c-2.9.371-5.017-2.5-7.28-4.354a1.971,1.971,0,0,0-1.383-.571,4.988,4.988,0,0,0-1.143.44c-1.143.4-2.337-.36-3.508-.691-3.143-.88-7.137,1.246-9.468-1.04.223,1.457-1.566,2.434-3.04,2.406s-2.994-.571-4.388-.08a2.857,2.857,0,0,1-1.634,4.091l.691,1.509a3.9,3.9,0,0,0-3,2.811c-.76,3-.571,7.263-.389,10.348C599.809,130.519,601.129,141.176,600.2,141.685Z" transform="translate(-287.193 -86.321)"/><path class="g" d="M615.3,203.131c-10.371,11.663-13.011,28.079-15.222,43.536l-3.257,22.822c-.846,5.92-1.714,11.84-2.451,17.777a46.822,46.822,0,0,0-.434,12.245,66.789,66.789,0,0,0,2.4,9.365,88.317,88.317,0,0,1,3.429,24.851c.691-2.034,3.086-2.857,5.188-3.314a83.9,83.9,0,0,1,52.49,5.606c2.886-8.086,2.343-16.931,3.149-25.479,1.143-12.188,5.08-24,6.246-36.165.429-4.531.48-9.085.526-13.64a45.658,45.658,0,0,0-.629-9.994,41.948,41.948,0,0,0-4.114-10.285A268.063,268.063,0,0,0,647,213.931q-4.308-6.446-8.988-12.634-2.371-3.137-4.84-6.206c-1.594-1.983-2.286-3.7-4.817-2.514C623.577,194.817,618.777,199.217,615.3,203.131Z" transform="translate(-284.676 -122.367)"/><path class="e" d="M629.875,378.081a56,56,0,0,1-7.583-.24,16.452,16.452,0,0,0-5.6,0,5.829,5.829,0,0,0-2.177,1.069,1.64,1.64,0,0,0,.931,2.857l1.954.171a5.494,5.494,0,0,1,3.5,1.143,2.183,2.183,0,0,1,.709,1.377c.12,1.331-1.034,2.057-2.068,2.611a16.394,16.394,0,0,0-4.034,2.686,5.588,5.588,0,0,0-1.674,3.428.663.663,0,0,0,.971.611c2.286-1.143,3.777-4.531,6.286-3.966a10.183,10.183,0,0,0-5.52,4.246A2.56,2.56,0,0,0,619,397.692a11.323,11.323,0,0,0,1.074-.714,26.4,26.4,0,0,0,4.531-4.708c-1.829,3.857-3.68,8.371-1.577,12.205a1.217,1.217,0,0,0,1.143.674c.663-.069.857-.691.966-1.24.343-1.766.429-3.628,1.3-5.2,2.011-3.646,6.971-4,10.748-5.777,4.531-2.1,7.634-6.628,8.886-11.463a8.809,8.809,0,0,0,.223-4.354c-.84-3.251-4.851-4-7.428-2.428C635.7,376.692,633.863,377.955,629.875,378.081Z" transform="translate(-293.311 -200.245)"/><path class="h" d="M632.557,248.622c4,6.177,10.943,9.657,16.9,13.994a14.164,14.164,0,0,1,3.737,3.554,12.2,12.2,0,0,1,1.406,8,50.668,50.668,0,0,1-2.7,10.514l-2.5,7.457c-1.583,4.731-3.217,9.56-6.228,13.537-.771,1.011-1.668,2.091-1.634,3.36a4.343,4.343,0,0,0,.731,2.046,13.759,13.759,0,0,0,8.737,6.24,6.663,6.663,0,0,0,3.286,0,8.9,8.9,0,0,0,3.777-2.9c5.143-5.674,10.285-11.428,14-18.085,3.628-6.5,5.8-13.714,7.8-20.862a43.912,43.912,0,0,0,1.714-8.074,29.509,29.509,0,0,0-3.131-14.931,73.688,73.688,0,0,0-8.366-12.937,90.046,90.046,0,0,0-9.8-11.245c-6.217-5.811-13.823-9.228-22.142-5.931-5.874,2.331-8.074,7.194-8.6,13.423A20.422,20.422,0,0,0,632.557,248.622Z" transform="translate(-300.005 -134.745)"/><path class="g" d="M636.179,245.928c4,6.177,10.948,9.657,16.9,13.994a14.211,14.211,0,0,1,3.72,3.577,12.193,12.193,0,0,1,1.406,8,50.681,50.681,0,0,1-2.7,10.514l-2.5,7.428c-1.583,4.731-3.217,9.554-6.228,13.537-.766,1.011-1.663,2.086-1.628,3.36a4.239,4.239,0,0,0,.731,2.04,13.754,13.754,0,0,0,8.731,6.246,6.685,6.685,0,0,0,3.291,0,8.922,8.922,0,0,0,3.777-2.9c5.143-5.68,10.286-11.428,14-18.085,3.629-6.5,5.8-13.714,7.8-20.868a43.476,43.476,0,0,0,1.714-8.068,29.6,29.6,0,0,0-3.126-14.937,73.152,73.152,0,0,0-8.365-12.937,90.08,90.08,0,0,0-9.823-11.183c-6.211-5.806-13.817-9.228-22.137-5.926-5.88,2.331-8.074,7.188-8.606,13.423a20.44,20.44,0,0,0,3.046,12.783Z" transform="translate(-301.547 -133.616)"/><path class="b" d="M840.351,612.588a21.143,21.143,0,0,1-.457,4.434c-.057.274-.12.571-.183.806-1.623,6.508-6.2,11.268-11.663,11.571h-.571c-5.777,0-10.663-4.983-12.274-11.845-.046-.183-.086-.366-.126-.571a21.144,21.144,0,0,1-.457-4.434c0-9.3,5.754-16.828,12.857-16.828S840.351,603.308,840.351,612.588Z" transform="translate(-379.367 -295.316)"/><path class="h" d="M840.368,612.61a21.14,21.14,0,0,1-.457,4.434c-.057.274-.12.571-.183.806h-.571a26.148,26.148,0,0,1-4.206-.571,25.679,25.679,0,0,1-3.748.857,26.237,26.237,0,0,1-2.937.274h-.994a26.529,26.529,0,0,1-3.523-.235,25.814,25.814,0,0,1-5.523-1.371,26.027,26.027,0,0,1-2.983.8c-.046-.183-.086-.366-.126-.571a21.146,21.146,0,0,1-.457-4.434c0-9.3,5.754-16.828,12.857-16.828S840.368,603.33,840.368,612.61Z" transform="translate(-379.384 -295.337)"/><path class="g" d="M844.677,541.968a26.021,26.021,0,0,0-2.8-11.777l-15.12,4.7,13.274-7.805A26.131,26.131,0,0,0,820.4,515.9a26.093,26.093,0,0,0-2.04-2.7l-21.714,6.76,17.811-10.474a26.131,26.131,0,0,0-41.142,13.937l18.6,21.411-20.177-14.594a26.137,26.137,0,0,0,23.388,46.113,26.239,26.239,0,0,0,16.731.463A26.159,26.159,0,0,0,843.637,551.3c0-.572,0-1.143-.057-1.714A26.076,26.076,0,0,0,844.677,541.968Z" transform="translate(-356.265 -256.043)"/><path class="h" d="M844.2,574.358A69.657,69.657,0,0,0,820,574.049c-9.08,1.5-18.36,4.806-27.239,2.394-5.211-1.417-9.714-4.7-14.805-6.52a28.1,28.1,0,0,0-15.285-.914A26.148,26.148,0,0,0,795.066,603.9a26.239,26.239,0,0,0,16.731.463,26.159,26.159,0,0,0,31.782-25.519c0-.571,0-1.143-.057-1.714A25.821,25.821,0,0,0,844.2,574.358Z" transform="translate(-356.236 -283.587)"/></g></svg>