<svg xmlns="http://www.w3.org/2000/svg" xmlns:xlink="http://www.w3.org/1999/xlink" width="476" height="550" viewBox="0 0 476 550">
  <defs>
    <clipPath id="clip-path">
      <rect id="Rectangle_162" data-name="Rectangle 162" width="95.119" height="102.087" transform="matrix(0.611, 0.792, -0.792, 0.611, 80.841, 0)" fill="none"/>
    </clipPath>
    <clipPath id="clip-path-2">
      <rect id="Rectangle_164" data-name="Rectangle 164" width="62.33" height="62.33" fill="none"/>
    </clipPath>
  </defs>
  <g id="Group_1113" data-name="Group 1113" transform="translate(-1294 -4414)">
    <rect id="Rectangle_29" data-name="Rectangle 29" width="476" height="550" rx="30" transform="translate(1294 4414)" fill="rgba(97,89,229,0.38)"/>
    <g id="Group_1106" data-name="Group 1106" transform="translate(1017.971 4031.001)">
      <g id="Group_1042" data-name="Group 1042" transform="translate(331.073 462.203)">
        <g id="Group_1041" data-name="Group 1041" transform="translate(0)" clip-path="url(#clip-path)">
          <path id="Path_941" data-name="Path 941" d="M498.587,591.124a83.021,83.021,0,1,1,116.441,15.044A83.021,83.021,0,0,1,498.587,591.124Zm95.959-74a38.157,38.157,0,1,0-6.914,53.518A38.2,38.2,0,0,0,594.546,517.124Z" transform="translate(-440.243 -458.954)" fill="#f2dc5a"/>
        </g>
      </g>
      <path id="Path_942" data-name="Path 942" d="M846.465,1130.547c-23.689,22.782-53.05,10.512-60.617,35.916-4.59,15.412-9.982,97.238,70.446,102.494,30.3,1.98,95.924-9.2,107.458-43.071,4.377-12.854-15.646-28.971-9.636-44.969,8.846-23.549,43.8-14.308,40.151-47.013-1.731-15.505-16.756-31.7-32.851-38.179-40.314-16.22-75-18.554-99.7-7.952C848.428,1093.48,854.663,1122.662,846.465,1130.547Z" transform="translate(-313.695 -418.875)" fill="#57eace"/>
      <g id="Group_1043" data-name="Group 1043" transform="translate(537.507 619.094)">
        <path id="Path_943" data-name="Path 943" d="M1002.144,952.56s1.536,9.347.914,14.9c-.329,2.933-1.774,6.979-6.9,11.519,11.033,10.229,34.169,6.228,38.685-5.783-2.864-1.118-5.879-2.347-7.728-4.8-1.977-2.627-2.228-6.124-2.4-9.407q-.247-4.6-.495-9.208C1015.138,949.014,1002.144,952.56,1002.144,952.56Z" transform="translate(-995.007 -948.898)" fill="#fff"/>
        <path id="Path_944" data-name="Path 944" d="M1010.558,983.98c-6.754,0-13.106-2.137-17.327-6.051l-.623-.578.636-.564c3.987-3.528,6.224-7.239,6.649-11.028.6-5.383-.893-14.6-.909-14.688l-.113-.685.669-.183c.536-.146,13.228-3.573,22.335-2.808l.669.056.531,9.878c.154,2.876.346,6.455,2.251,8.985,1.773,2.356,4.889,3.572,7.393,4.55l.708.276-.267.712c-1.985,5.28-7.643,9.488-15.133,11.255A32.578,32.578,0,0,1,1010.558,983.98Zm-15.649-6.624c5.462,4.584,14.282,6.255,22.764,4.253,6.646-1.569,11.72-5.126,13.754-9.6-2.538-1-5.477-2.307-7.331-4.772-2.187-2.9-2.393-6.744-2.558-9.828l-.458-8.53c-7.616-.453-17.792,1.957-20.467,2.634.344,2.292,1.346,9.642.811,14.414C1000.98,969.9,998.789,973.737,994.909,977.357Z" transform="translate(-992.608 -947.285)" fill="#494642"/>
      </g>
      <path id="Path_945" data-name="Path 945" d="M1026.725,566.723c-2.679-2.48-3.278-6.093-4.006-10.481-.43-2.589-1.48-13.929,12.02-25.072,15.076-12.444,28.622-7.306,32.443-5.014,5.319,3.19,9,9.232,11.041,15.264a20.266,20.266,0,0,1,.939,9.792c-1.061,6.324-4.746,7.53-3.317,13.781.778,3.407,7.387,11.072,6.893,17.374-.858,10.95-12.618,10.021-15.264,9.49-3.128-.628-20.208-19.264-33.329-22.359C1031.409,568.852,1029,568.831,1026.725,566.723Z" transform="translate(-475.33 -41.226)" fill="#494642"/>
      <g id="Group_1044" data-name="Group 1044" transform="translate(511.438 541.836)">
        <path id="Path_946" data-name="Path 946" d="M996.793,755.971a16.621,16.621,0,0,1-9.683,8.95l.044-.365c-4.9,21.062-17.355,30.871-30.257,32.248-21.932,2.341-40.151-29.221-42.05-57.15-.116-1.727-2.073-13.007,3.067-19.23,5.549-6.715,57.671-12.847,64.1-7.738,3.734,2.973,6.678,16.994,7.007,21.755a126.439,126.439,0,0,1,.233,13.855,6.242,6.242,0,0,1,3.96-1.052,4.957,4.957,0,0,1,3.663,2.123C998.135,751.289,997.713,753.868,996.793,755.971Z" transform="translate(-913.618 -710.025)" fill="#fff"/>
        <path id="Path_947" data-name="Path 947" d="M953.032,796.084c-5.978,0-12-2.423-17.564-7.09-6.143-5.156-11.6-12.847-15.777-22.24a86.906,86.906,0,0,1-7.222-28.658c-.011-.163-.043-.444-.083-.8-.368-3.252-1.488-13.147,3.325-18.972,1.421-1.72,5.411-3.408,11.86-5.017a172.349,172.349,0,0,1,20.363-3.56c12.848-1.533,29.186-2.263,32.947.727,4.189,3.335,7.015,18.238,7.3,22.3.3,4.373.4,8.606.281,12.605a6.743,6.743,0,0,1,3.216-.516,5.706,5.706,0,0,1,4.236,2.468c.714,1.088,1.661,3.488-.02,7.333a17.473,17.473,0,0,1-9.784,9.243c-2.382,9.728-6.467,17.492-12.15,23.088a31.026,31.026,0,0,1-18.586,8.959A21.988,21.988,0,0,1,953.032,796.084Zm14.781-86.137a171.971,171.971,0,0,0-19.7,1.329c-16.057,1.916-28.894,5.218-31.217,8.029-4.4,5.322-3.331,14.727-2.982,17.818.044.39.076.672.09.869a85.32,85.32,0,0,0,7.092,28.136c4.083,9.181,9.394,16.679,15.359,21.686,6.041,5.071,12.348,7.3,18.748,6.613a29.5,29.5,0,0,0,17.669-8.525c5.625-5.539,9.635-13.322,11.919-23.132l.553.1-.1-.286a15.891,15.891,0,0,0,9.229-8.531h0c.48-1.1,1.456-3.871.143-5.872a4.211,4.211,0,0,0-3.091-1.779,5.454,5.454,0,0,0-3.466.929l-1.254.823.061-1.5a126.2,126.2,0,0,0-.232-13.77c-.345-4.982-3.32-18.5-6.719-21.206C978.476,710.53,974.06,709.948,967.814,709.948Z" transform="translate(-912.009 -708.415)" fill="#494642"/>
      </g>
      <g id="Group_1045" data-name="Group 1045" transform="translate(544.32 521.857)">
        <path id="Path_948" data-name="Path 948" d="M1016.057,654.015c-.178-1.9,7.944-5.246,15.44-4.975a26.561,26.561,0,0,1,15.351,6c-6.192.393-10.992.9-14.167,1.287-3.521.424-8.459,1.1-14.109-.784C1016.451,654.831,1016.091,654.384,1016.057,654.015Z" transform="translate(-1015.284 -648.254)" fill="#fff"/>
        <path id="Path_949" data-name="Path 949" d="M1024.971,655.96a25.737,25.737,0,0,1-8.255-1.3c-2.16-.721-2.955-1.292-3.038-2.183a1.975,1.975,0,0,1,.65-1.529c1-1.062,3.29-2.194,6.117-3.028a30.539,30.539,0,0,1,9.468-1.26,27.382,27.382,0,0,1,15.8,6.163l1.575,1.246-2,.127c-4.87.309-9.621.74-14.124,1.283l-.317.038A47.351,47.351,0,0,1,1024.971,655.96Zm-9.746-3.657a5.885,5.885,0,0,0,1.979.895c5.318,1.775,10.021,1.205,13.455.789l.318-.038c3.881-.468,7.947-.853,12.112-1.15a25.128,25.128,0,0,0-13.231-4.6,29.213,29.213,0,0,0-10.069,1.545C1016.573,650.842,1015.366,651.95,1015.225,652.3Z" transform="translate(-1013.673 -646.644)" fill="#494642"/>
      </g>
      <path id="Path_950" data-name="Path 950" d="M974.895,708.855s-4.394-2.4-7.729,1.241c-1.811,1.978-2.207,4.588-2.044,7.244-.7-7.016-2.978-15.568-8.635-19.654-8.739-6.314-9.36-12.677-12.608-15.221-3.384-.579-6.665-1.717-10.95,7.811-5.548,12.337-21.38,10.153-27,14.008-3.373,2.313-4.47,4.079-5.923,7.9s-1.938,9.951-4.29,10.842c-11.474,4.35-13.291-21.747-12.935-29.9.869-19.819,11.382-31.7,17.52-35.333,4.673-2.761,14.112-7.34,24.53-4.207,10.061,3.027,15.841,1.8,26.717.117,2.112-.326,10.881.63,18.4,13C977.677,679.426,974.895,708.855,974.895,708.855Z" transform="translate(-380.765 -128.768)" fill="#494642"/>
      <g id="Group_1046" data-name="Group 1046" transform="translate(487.189 639.395)">
        <path id="Path_951" data-name="Path 951" d="M891.127,1016.509s6.935,9.041,17.228,9.125c9.3.076,14.01-7.532,18.542-12.736,10.846,4.422,20.69,7.375,26.333,10.022,16.373,7.679,16.227,16.381,16.7,19.228,5.169,31.394,6.975,42.81,5.427,64.377-.3,4.125-2.1,14.814-4.9,16.586a12.089,12.089,0,0,1-5.863,1.681c-11.553.622-22.85-3.11-34.323-4.6a89.342,89.342,0,0,0-41.069,4.339c-9.143,3.23-18.151,8.029-27.841,7.676-1-.037-8.241-6.688-12.668-10.625-4.34-3.859-7.884-6.619-9.247-15.281-.484-3.08,3.6-35.116,4.964-47.3,1.74-15.515,3.251-18.855,8.371-24.334,1.941-2.077,6.907-5.1,14.211-8.566A193.151,193.151,0,0,1,891.127,1016.509Z" transform="translate(-838.636 -1011.977)" fill="#fff"/>
        <path id="Path_952" data-name="Path 952" d="M860.762,1131.07q-.517,0-1.037-.018c-.9-.033-3.032-1.753-10.855-8.766-.812-.728-1.59-1.426-2.3-2.054l-.62-.55c-4.043-3.578-7.535-6.669-8.875-15.187-.356-2.264,1.426-17.66,3.614-36.036.547-4.595,1.019-8.563,1.346-11.475,1.754-15.639,3.312-19.142,8.574-24.774,2.032-2.175,7.162-5.278,14.443-8.735a195.8,195.8,0,0,1,24.246-9.629l.51-.154.324.422c.087.113,6.854,8.744,16.623,8.824h.13c7.537,0,11.96-5.381,15.864-10.131.675-.821,1.313-1.6,1.961-2.341l.362-.415.51.208c5.195,2.117,10.165,3.9,14.551,5.472,4.751,1.7,8.854,3.174,11.819,4.565,15.514,7.276,16.575,15.549,17.028,19.081.035.27.065.511.1.719,5.1,30.992,7.013,42.589,5.435,64.558-.171,2.388-1.775,14.979-5.256,17.182a12.814,12.814,0,0,1-6.233,1.8c-7.71.415-15.395-1.1-22.825-2.569-3.812-.753-7.753-1.531-11.639-2.035a88.6,88.6,0,0,0-40.713,4.3c-2.094.74-4.224,1.579-6.283,2.391C874.892,1128.353,868,1131.07,860.762,1131.07Zm-.918-1.555c7.271.245,14.333-2.534,21.159-5.225,2.072-.817,4.215-1.661,6.335-2.41a90.13,90.13,0,0,1,41.424-4.376c3.937.511,7.9,1.294,11.739,2.052,7.338,1.449,14.927,2.947,22.444,2.542a11.31,11.31,0,0,0,5.492-1.562c2.3-1.456,4.208-11.327,4.543-15.99,1.564-21.788-.337-33.336-5.418-64.2-.037-.224-.07-.482-.108-.773-.421-3.281-1.407-10.966-16.155-17.883-2.9-1.359-6.97-2.819-11.684-4.51-4.256-1.526-9.061-3.249-14.1-5.287-.515.6-1.032,1.233-1.574,1.892-4.122,5.014-8.79,10.693-17.049,10.693h-.148c-9.373-.077-15.939-7.16-17.491-9a198.194,198.194,0,0,0-23.54,9.392c-7.111,3.376-12.075,6.358-13.979,8.4-5.624,6.019-6.628,10.16-8.168,23.894-.327,2.917-.8,6.888-1.347,11.485-1.582,13.291-3.973,33.376-3.621,35.614,1.254,7.972,4.4,10.753,8.375,14.273l.623.552c.708.629,1.487,1.328,2.3,2.058C853.232,1124.127,858.789,1129.108,859.844,1129.514Zm.031.011Z" transform="translate(-837.032 -1010.051)" fill="#494642"/>
      </g>
      <g id="Group_1047" data-name="Group 1047" transform="translate(502.383 675.148)">
        <path id="Path_953" data-name="Path 953" d="M887.15,1160.9s14.06-30.5,14.688-35.041a45.253,45.253,0,0,0,16.634,10.5,2.248,2.248,0,0,1,1.294.775,1.789,1.789,0,0,1,.271.855c.061.953,1.955,12.528,4.683,28.935C902.095,1168.192,887.15,1160.9,887.15,1160.9Z" transform="translate(-886.135 -1124.156)" fill="#fff"/>
        <path id="Path_954" data-name="Path 954" d="M917.38,1164.278c-19.641,0-32.551-6.181-32.691-6.248l-.677-.331.315-.684c4.846-10.514,14.14-31.323,14.625-34.824l.221-1.6,1.1,1.175a44.308,44.308,0,0,0,16.3,10.292,2.917,2.917,0,0,1,1.71,1.092,2.538,2.538,0,0,1,.392,1.224c.078,1.217,3.538,22.021,4.675,28.857l.141.847-.857.048Q919.938,1164.282,917.38,1164.278Zm-31.329-7.325c3.122,1.343,16.634,6.574,35.645,5.684-4-24.076-4.515-27.612-4.551-28.161a1,1,0,0,0-.15-.487,1.746,1.746,0,0,0-.877-.458,46.752,46.752,0,0,1-15.984-9.719C898.082,1130.622,888.043,1152.613,886.051,1156.953Z" transform="translate(-884.012 -1120.595)" fill="#494642"/>
      </g>
      <g id="Group_1052" data-name="Group 1052" transform="translate(504.928 581.749)">
        <g id="Group_1048" data-name="Group 1048" transform="translate(0 0)">
          <path id="Path_955" data-name="Path 955" d="M948.163,860.491a27.3,27.3,0,0,1-21,26.884l.424,35.779s-3.171.5-4.248.517-4.412-.416-4.412-.416L918.507,888a27.293,27.293,0,1,1,29.656-27.512Z" transform="translate(-893.03 -832.97)" fill="#fff"/>
          <path id="Path_956" data-name="Path 956" d="M922.14,923.071c-1.16,0-4.3-.4-4.435-.42l-.474-.061-.418-35.235a27.844,27.844,0,0,1,2.583-55.533l.331,0a27.846,27.846,0,0,1,6.839,54.836l.425,35.817-.469.074c-.131.021-3.224.511-4.328.524Zm-3.821-1.453c.932.114,2.986.353,3.815.353h.045c.783-.009,2.784-.3,3.7-.438l-.424-35.742.429-.1a26.745,26.745,0,0,0-6.158-52.77l-.318,0a26.743,26.743,0,0,0-2,53.384l.5.043Z" transform="translate(-891.879 -831.82)" fill="#494642"/>
        </g>
        <g id="Group_1049" data-name="Group 1049" transform="translate(6.274 6.273)">
          <path id="Path_957" data-name="Path 957" d="M934.242,894.951a21.019,21.019,0,1,1,20.771-21.264A21.042,21.042,0,0,1,934.242,894.951Z" transform="translate(-912.427 -852.365)" fill="#fff"/>
          <path id="Path_958" data-name="Path 958" d="M932.839,894.352a21.569,21.569,0,0,1-.246-43.136h.256a21.568,21.568,0,0,1,.249,43.135Zm.01-42.037-.243,0a20.448,20.448,0,1,0,.243,0Z" transform="translate(-911.276 -851.215)" fill="#494642"/>
        </g>
        <g id="Group_1050" data-name="Group 1050" transform="translate(24.731 89.184)">
          <path id="Path_959" data-name="Path 959" d="M980.409,1137.273a30.249,30.249,0,0,1-5,.812,25.851,25.851,0,0,1-5.018-.694l-.322-27.529a29.338,29.338,0,0,0,5.018.694,27.588,27.588,0,0,0,5-.812Z" transform="translate(-969.51 -1109.039)" fill="#fff"/>
          <path id="Path_960" data-name="Path 960" d="M974.141,1137.16a26.545,26.545,0,0,1-5.047-.71l-.416-.1-.336-28.655.68.154a28.929,28.929,0,0,0,4.9.681h0a27.216,27.216,0,0,0,4.861-.795l.677-.172.336,28.664-.424.1a30.331,30.331,0,0,1-5.125.827Zm-4.373-1.686a22.886,22.886,0,0,0,4.467.585,26.618,26.618,0,0,0,4.452-.7l-.309-26.4a23.961,23.961,0,0,1-4.454.666h0a26.081,26.081,0,0,1-4.46-.564Z" transform="translate(-968.342 -1107.564)" fill="#494642"/>
        </g>
        <g id="Group_1051" data-name="Group 1051" transform="translate(16.305 16.794)">
          <path id="Path_961" data-name="Path 961" d="M950.808,906.452s-10.422-14.835-5.531-16.137c4.145-1.1,10.2,16.868,12.89,15.313,4.3-2.482-10.911-17.759-6.179-20.437,4.551-2.575,10.151,19.075,13.362,16.185s-4.781-17.426-4.781-17.426" transform="translate(-943.428 -883.885)" fill="#fff"/>
          <path id="Path_962" data-name="Path 962" d="M949.673,906.312a.548.548,0,0,1-.767-.138c-1.632-2.38-7.723-11.619-6.437-15.15a2.145,2.145,0,0,1,1.53-1.379c2.631-.7,5.42,4.221,8.117,8.981,1.625,2.868,3.466,6.119,4.485,6.4a.177.177,0,0,0,.155-.01.913.913,0,0,0,.452-.6c.414-1.6-1.782-5.257-3.719-8.489-2.368-3.951-4.605-7.684-4.014-9.925a2.248,2.248,0,0,1,1.106-1.429,2.092,2.092,0,0,1,1.7-.184c2.286.7,4.5,5.136,6.646,9.428,1.618,3.241,3.453,6.914,4.587,7.129a.354.354,0,0,0,.332-.118c2.043-1.838-1.665-10.753-4.637-16.277a.547.547,0,0,1,.22-.738h0a.547.547,0,0,1,.748.223c.6,1.132,2.11,4.071,3.361,7.2,2.245,5.617,2.586,9.022,1.043,10.41a1.445,1.445,0,0,1-1.273.381c-1.588-.3-3.074-3.129-5.365-7.718-1.849-3.7-4.149-8.308-5.984-8.868a1,1,0,0,0-.838.09,1.154,1.154,0,0,0-.583.752c-.473,1.793,1.847,5.664,3.894,9.079,2.247,3.749,4.369,7.29,3.84,9.331a2,2,0,0,1-.967,1.272,1.276,1.276,0,0,1-.994.118c-1.39-.379-2.864-2.875-5.153-6.916-2.138-3.774-5.069-8.941-6.877-8.46a1.047,1.047,0,0,0-.78.692c-.972,2.672,3.965,10.729,6.312,14.153a.547.547,0,0,1-.138.757Z" transform="translate(-942.292 -883.746)" fill="#494642"/>
        </g>
      </g>
      <g id="Group_1053" data-name="Group 1053" transform="translate(535.302 668.128)">
        <path id="Path_963" data-name="Path 963" d="M992.389,1101.273c.8-.059,3.575,3.011,3.283,10.214s-3.212,7.884-4.283,7.689-3.65-3.99-3.157-10.415C988.667,1103.113,990.145,1101.438,992.389,1101.273Z" transform="translate(-987.402 -1100.502)" fill="#fff"/>
        <path id="Path_964" data-name="Path 964" d="M990.1,1118.363a2.505,2.505,0,0,1-.456-.04c-1.556-.283-4.3-4.5-3.786-11.231.425-5.527,1.88-7.979,4.867-8.2h0a1.837,1.837,0,0,1,1.366.652c1.471,1.424,2.964,4.893,2.742,10.361-.155,3.815-1.04,6.4-2.633,7.671A3.434,3.434,0,0,1,990.1,1118.363Zm.651-17.926c-1.5.14-2.923,1.111-3.358,6.772-.448,5.838,1.8,9.342,2.546,9.6a1.7,1.7,0,0,0,1.3-.437c.692-.554,1.879-2.139,2.057-6.531C993.562,1103.234,991.234,1100.7,990.75,1100.437Zm-.037-.018Z" transform="translate(-985.793 -1098.89)" fill="#494642"/>
      </g>
      <g id="Group_1054" data-name="Group 1054" transform="translate(517.318 656.591)">
        <path id="Path_965" data-name="Path 965" d="M947.849,1075.152c-.654-3.184-.6-10.48-7.594-9.456-5.013.734-8.26,9.878-7.61,17.47.722,8.423,2.336,11.9,4.867,14.114,2.737,2.391,8.694,2.511,10.366.5,5.986-7.212,5.215-19.616,3.066-19.963C948.535,1077.423,948.055,1076.152,947.849,1075.152Z" transform="translate(-931.794 -1064.828)" fill="#fff"/>
        <path id="Path_966" data-name="Path 966" d="M941.877,1098.349a10.171,10.171,0,0,1-6.48-2.1c-3.014-2.633-4.451-6.734-5.127-14.627a26.391,26.391,0,0,1,1.735-11.664c1.589-3.894,3.908-6.25,6.531-6.634,2.961-.434,5.149.469,6.506,2.681a15.815,15.815,0,0,1,1.712,5.914c.081.541.156,1.052.242,1.469h0c.17.829.515,1.739,2.463,2.054.662.107,1.189.67,1.565,1.673,1.31,3.492,1.035,13.281-4.162,19.542a5.8,5.8,0,0,1-4.046,1.655C942.5,1098.337,942.191,1098.349,941.877,1098.349Zm-1.948-33.593a8.107,8.107,0,0,0-1.17.091c-4.585.672-7.553,9.653-6.954,16.642.736,8.589,2.374,11.648,4.606,13.6a9.045,9.045,0,0,0,6.283,1.688,4.505,4.505,0,0,0,2.983-1.1c4.135-4.982,4.961-12.822,4.227-16.8a3.6,3.6,0,0,0-.719-1.919c-2.809-.464-3.456-2.082-3.7-3.261h0c-.094-.457-.173-.989-.257-1.552C944.631,1068.109,943.794,1064.757,939.93,1064.757Z" transform="translate(-930.187 -1063.218)" fill="#494642"/>
      </g>
      <g id="Group_1055" data-name="Group 1055" transform="translate(496.136 676.508)">
        <path id="Path_967" data-name="Path 967" d="M867.513,1134.987s23.633,12.232,52.78,8.979c29.566-3.3,63.146-14.973,63.146-14.973s-28.619,56.073-22.487,85.273,16.938,38.034,16.938,38.034-2.521,4.129-10.7,6.173c-34.905,8.726-60.656,5.8-77.2,7.429a89.9,89.9,0,0,0-17.561,3.918s-.694-70.251-.981-82.272C871.017,1169.2,867.513,1134.987,867.513,1134.987Z" transform="translate(-866.602 -1127.637)" fill="#fff"/>
        <path id="Path_968" data-name="Path 968" d="M869.77,1268.057l-.011-1.067c-.007-.7-.7-70.382-.981-82.261-.432-18.109-3.9-52.159-3.938-52.5l-.146-1.416,1.265.654a88.437,88.437,0,0,0,15.354,5.663,99.544,99.544,0,0,0,36.986,3.234c29.138-3.252,62.644-14.819,62.979-14.935l1.81-.629-.871,1.706a310.736,310.736,0,0,0-13.51,31.615c-5.791,16.021-12.038,38.247-8.908,53.151,1.727,8.228,4.972,20.047,10.614,29.625,3.369,5.72,6.033,7.95,6.059,7.972l.516.425-.347.572c-.11.179-2.782,4.423-11.167,6.519-24.861,6.215-44.7,6.533-60.645,6.788-6.382.1-11.894.19-16.663.66a89.835,89.835,0,0,0-17.386,3.88Zm-3.26-134.616c.654,6.573,3.424,35.162,3.808,51.251.265,11.085.883,72.419.971,81.234a89.772,89.772,0,0,1,16.726-3.628c4.831-.476,10.372-.565,16.789-.667,15.864-.254,35.607-.57,60.3-6.742,5.482-1.371,8.632-3.846,9.856-5.323a37.716,37.716,0,0,1-5.8-7.778c-5.786-9.774-9.1-21.818-10.86-30.2-1.42-6.762-1.109-15.492.924-25.949a191.53,191.53,0,0,1,8.049-28.059,319.244,319.244,0,0,1,12.751-30.1c-7.328,2.428-36.079,11.574-61.545,14.416a101.106,101.106,0,0,1-37.611-3.293A95.673,95.673,0,0,1,866.51,1133.442Z" transform="translate(-864.695 -1124.799)" fill="#494642"/>
      </g>
      <g id="Group_1056" data-name="Group 1056" transform="translate(580.626 720.39)">
        <path id="Path_969" data-name="Path 969" d="M1138.7,1262.858c4.864.164,9.494,6.549,7.154,18.1s-6.589,16.88-10.415,16.547c-8.955-.778-4.971-6.473-5.548-9.539s-3.323-9.928.042-15.914S1135.527,1262.751,1138.7,1262.858Z" transform="translate(-1127.525 -1262.085)" fill="#fff"/>
        <path id="Path_970" data-name="Path 970" d="M1134.189,1296.684c-.138,0-.276-.006-.414-.018-2.838-.247-4.714-1-5.733-2.3-1.258-1.605-.943-3.621-.666-5.4a8.142,8.142,0,0,0,.161-2.464c-.094-.5-.249-1.107-.43-1.816-.893-3.508-2.389-9.378.557-14.618,3.3-5.875,5.74-9.709,9.464-9.591h0a7.546,7.546,0,0,1,5.628,3.086c1.63,2.063,4.09,6.877,2.255,15.941C1142.85,1290.175,1138.731,1296.684,1134.189,1296.684Zm2.765-34.669c-2.56,0-4.538,2.743-7.948,8.808-2.643,4.7-1.3,9.987-.407,13.483.187.734.348,1.367.451,1.911a9.094,9.094,0,0,1-.153,2.986c-.24,1.541-.489,3.133.356,4.212.732.934,2.3,1.511,4.654,1.716,2.886.25,7.131-3.771,9.594-15.933,1.251-6.175.538-11.526-1.953-14.68a6.039,6.039,0,0,0-4.472-2.5Z" transform="translate(-1125.925 -1260.475)" fill="#494642"/>
      </g>
      <g id="Group_1064" data-name="Group 1064" transform="translate(390.483 492.858)">
        <g id="Group_1057" data-name="Group 1057" transform="translate(68.456 44.184)">
          <path id="Path_971" data-name="Path 971" d="M760.907,712.236l-11.218-1,1.576-17.642,11.218,1Zm-10.024-2,9.026.806,1.38-15.45-9.026-.806Z" transform="translate(-749.689 -693.592)" fill="#494642"/>
        </g>
        <g id="Group_1058" data-name="Group 1058" transform="translate(59.979 40.58)">
          <path id="Path_972" data-name="Path 972" d="M732.8,706.662l-9.316-.832,2.088-23.382,9.316.832Zm-8.122-1.83,7.125.636,1.892-21.19-7.125-.636Z" transform="translate(-723.481 -682.449)" fill="#494642"/>
        </g>
        <g id="Group_1059" data-name="Group 1059" transform="translate(1.306 0)">
          <path id="Path_973" data-name="Path 973" d="M546.429,634.555a3.089,3.089,0,0,1-.594-.058l-1.27-.247a3.077,3.077,0,0,1-2.433-3.608l13.853-71.169a3.081,3.081,0,0,1,3.608-2.433l1.271.247A3.077,3.077,0,0,1,563.3,560.9l-13.853,71.169a3.079,3.079,0,0,1-3.014,2.49Zm-.384-1.137a1.976,1.976,0,0,0,2.318-1.562l13.853-71.169a1.977,1.977,0,0,0-1.563-2.318l-1.271-.247a1.978,1.978,0,0,0-2.318,1.563l-13.853,71.169a1.977,1.977,0,0,0,1.563,2.318Z" transform="translate(-542.074 -556.983)" fill="#494642"/>
        </g>
        <g id="Group_1060" data-name="Group 1060" transform="translate(60.772 60.73)">
          <path id="Path_974" data-name="Path 974" d="M737.3,777.294l-11.371-1.137.129-.6c.016-.072,1.563-7.3,2.375-14.254.514-4.4-.375-10.356-.951-13.516l-.129-.711,6.1.545.256-2.87,7.573.676-.171.633c-.85,3.153-3.642,13.63-3.882,16.093a82.467,82.467,0,0,0,0,14.47Zm-10.04-2.11,8.816.882a84.033,84.033,0,0,1,.06-14.02c.23-2.357,2.573-11.276,3.745-15.64l-5.172-.462-.256,2.87-5.76-.514c.579,3.347,1.329,8.905.835,13.13C728.848,767.268,727.652,773.3,727.264,775.184Z" transform="translate(-725.933 -744.75)" fill="#494642"/>
        </g>
        <g id="Group_1061" data-name="Group 1061" transform="translate(78.899 49.513)">
          <path id="Path_975" data-name="Path 975" d="M781.977,719.7l.86-9.629.733.392a5.125,5.125,0,0,1,2.955,4.818c-.1,2.053-1.445,3.546-3.78,4.2Zm1.8-7.809-.56,6.263a3.29,3.29,0,0,0,2.207-2.928A3.77,3.77,0,0,0,783.779,711.89Z" transform="translate(-781.977 -710.07)" fill="#494642"/>
        </g>
        <g id="Group_1062" data-name="Group 1062" transform="translate(7.374 2.854)">
          <path id="Path_976" data-name="Path 976" d="M560.833,638.761l14.187-72.953,41.479,39.2-1.827,20.45-.381.094Zm14.885-70.78-13.477,69.3,51.406-12.7,1.709-19.137Z" transform="translate(-560.833 -565.808)" fill="#494642"/>
        </g>
        <g id="Group_1063" data-name="Group 1063" transform="translate(0 28.374)">
          <path id="Path_977" data-name="Path 977" d="M545.488,664.474l-.594-.2a10.041,10.041,0,0,1,3.183-19.564c.188,0,.391.007.621.021l.626.038ZM548,645.811a8.941,8.941,0,0,0-3.348,17.2Z" transform="translate(-538.035 -644.711)" fill="#494642"/>
        </g>
      </g>
      <g id="Group_1065" data-name="Group 1065" transform="translate(663.451 681.294)">
        <ellipse id="Ellipse_21" data-name="Ellipse 21" cx="3.951" cy="4.117" rx="3.951" ry="4.117" transform="translate(0)" fill="#494642"/>
        <ellipse id="Ellipse_22" data-name="Ellipse 22" cx="3.951" cy="4.117" rx="3.951" ry="4.117" transform="translate(13.955)" fill="#494642"/>
        <ellipse id="Ellipse_23" data-name="Ellipse 23" cx="3.951" cy="4.117" rx="3.951" ry="4.117" transform="translate(26.872)" fill="#494642"/>
        <ellipse id="Ellipse_24" data-name="Ellipse 24" cx="3.951" cy="4.117" rx="3.951" ry="4.117" transform="translate(0 12.585)" fill="#494642"/>
        <ellipse id="Ellipse_25" data-name="Ellipse 25" cx="3.951" cy="4.117" rx="3.951" ry="4.117" transform="translate(13.955 12.585)" fill="#494642"/>
        <ellipse id="Ellipse_26" data-name="Ellipse 26" cx="3.951" cy="4.117" rx="3.951" ry="4.117" transform="translate(26.872 12.585)" fill="#494642"/>
        <ellipse id="Ellipse_27" data-name="Ellipse 27" cx="3.951" cy="4.117" rx="3.951" ry="4.117" transform="translate(0 25.17)" fill="#494642"/>
        <ellipse id="Ellipse_28" data-name="Ellipse 28" cx="3.951" cy="4.117" rx="3.951" ry="4.117" transform="translate(13.955 25.17)" fill="#494642"/>
        <ellipse id="Ellipse_29" data-name="Ellipse 29" cx="3.951" cy="4.117" rx="3.951" ry="4.117" transform="translate(26.872 25.17)" fill="#494642"/>
      </g>
      <rect id="Rectangle_163" data-name="Rectangle 163" width="61.83" height="164.493" transform="translate(360.045 688.373)" fill="#f25ab1"/>
      <g id="Group_1074" data-name="Group 1074" transform="translate(319.947 671.008)">
        <g id="Group_1066" data-name="Group 1066" transform="translate(0.182 0.178)">
          <path id="Path_978" data-name="Path 978" d="M349.3,1191.989a7.523,7.523,0,0,1-1.562-.165,7.4,7.4,0,0,1-4.7-3.227L321.71,1155.75a7.452,7.452,0,0,1,2.188-10.3l55.288-35.909a7.453,7.453,0,0,1,10.3,2.188l21.333,32.846a7.443,7.443,0,0,1-2.188,10.3l-55.288,35.91A7.393,7.393,0,0,1,349.3,1191.989Zm33.93-82.543a6.3,6.3,0,0,0-3.445,1.022L324.5,1146.376a6.351,6.351,0,0,0-1.865,8.775L343.966,1188a6.344,6.344,0,0,0,8.775,1.865l55.288-35.909a6.343,6.343,0,0,0,1.864-8.775l-21.333-32.846A6.344,6.344,0,0,0,383.231,1109.446Z" transform="translate(-320.511 -1108.346)" fill="#494642"/>
        </g>
        <g id="Group_1067" data-name="Group 1067" transform="translate(10.23 0.187)">
          <path id="Path_979" data-name="Path 979" d="M356.007,1132.9a1.328,1.328,0,0,1-.6-.146l-3.1-1.579a1.326,1.326,0,0,1-.72-1.324c.653-6.527,4.563-12.16,11.621-16.744h0c6.633-4.308,13.013-5.682,18.965-4.084a1.336,1.336,0,0,1,.988,1.194l.239,3.411a1.329,1.329,0,0,1-1.766,1.346c-4.613-1.619-9.6-.625-15.238,3.039-5.679,3.688-8.627,7.843-9.012,12.7-.023.285-.037.577-.042.868a1.334,1.334,0,0,1-.649,1.126A1.318,1.318,0,0,1,356.007,1132.9Zm21.271-23.42c-4.3,0-8.812,1.521-13.475,4.55h0c-6.764,4.393-10.507,9.752-11.125,15.931a.234.234,0,0,0,.125.234l3.1,1.579a.218.218,0,0,0,.219-.007.238.238,0,0,0,.115-.2c.005-.314.021-.628.045-.936.414-5.222,3.525-9.65,9.51-13.537,5.946-3.862,11.245-4.893,16.2-3.154a.229.229,0,0,0,.3-.232l-.239-3.411a.236.236,0,0,0-.176-.209A17.687,17.687,0,0,0,377.278,1109.476Z" transform="translate(-351.577 -1108.374)" fill="#494642"/>
        </g>
        <g id="Group_1068" data-name="Group 1068" transform="translate(0)">
          <path id="Path_980" data-name="Path 980" d="M334.717,1170.367a6.707,6.707,0,0,1-5.635-3.052l-8.006-12.327a6.979,6.979,0,0,1,2.052-9.654l56.067-36.415.3.461-.3-.461a6.987,6.987,0,0,1,9.655,2.052l8.007,12.327a6.707,6.707,0,0,1-1.972,9.278l-56.524,36.712A6.669,6.669,0,0,1,334.717,1170.367Zm48.266-61.477a5.842,5.842,0,0,0-3.191.951l-56.067,36.415a5.879,5.879,0,0,0-1.728,8.133L330,1166.717a5.608,5.608,0,0,0,7.756,1.648l56.524-36.712a5.606,5.606,0,0,0,1.648-7.756l-8.006-12.327a5.841,5.841,0,0,0-3.708-2.549A5.934,5.934,0,0,0,382.983,1108.891Z" transform="translate(-319.947 -1107.795)" fill="#494642"/>
        </g>
        <g id="Group_1071" data-name="Group 1071" transform="translate(21.644 23.356)">
          <g id="Group_1069" data-name="Group 1069" transform="translate(0 22.549)">
            <path id="Path_981" data-name="Path 981" d="M388.665,1256.72a1.794,1.794,0,0,1-.98-3.3l5.248-3.409a1.794,1.794,0,0,1,1.954,3.009h0l-5.248,3.408A1.779,1.779,0,0,1,388.665,1256.72Zm5.243-5.9a.686.686,0,0,0-.376.112l-5.248,3.409a.693.693,0,0,0,.755,1.163l5.248-3.408a.693.693,0,0,0-.379-1.275Z" transform="translate(-386.867 -1249.724)" fill="#494642"/>
          </g>
          <g id="Group_1070" data-name="Group 1070" transform="translate(34.719)">
            <path id="Path_982" data-name="Path 982" d="M496.009,1187a1.81,1.81,0,0,1-.376-.04,1.794,1.794,0,0,1-.6-3.259l5.248-3.409a1.793,1.793,0,1,1,1.954,3.008l-5.248,3.409A1.782,1.782,0,0,1,496.009,1187Zm5.243-5.9a.69.69,0,0,0-.377.112l-5.248,3.408a.693.693,0,1,0,.756,1.163l5.248-3.409a.693.693,0,0,0-.379-1.275Z" transform="translate(-494.212 -1180.007)" fill="#494642"/>
          </g>
        </g>
        <g id="Group_1072" data-name="Group 1072" transform="translate(40.686 1.717)">
          <path id="Path_983" data-name="Path 983" d="M452.365,1121.577l-.314-.283a19.753,19.753,0,0,0-5.715-3.71l-.422-.172.09-.447a.213.213,0,0,0,0-.062l-.266-3.8.774.248c.154.049.308.1.461.154a23.607,23.607,0,0,1,8.363,5.33l.5.48Zm-5.268-4.866a20.845,20.845,0,0,1,5.374,3.485l1.6-1.039a22.36,22.36,0,0,0-7.116-4.489Z" transform="translate(-445.742 -1113.104)" fill="#494642"/>
        </g>
        <g id="Group_1073" data-name="Group 1073" transform="translate(11.051 21.832)">
          <path id="Path_984" data-name="Path 984" d="M355.9,1186.042l-.234-.655a23.95,23.95,0,0,1-1.53-9.243l.043-.847,3.439,1.752a.235.235,0,0,0,.07.022l.45.072.014.455a20.481,20.481,0,0,0,1.086,5.788l.133.4Zm-.688-8.985a23.058,23.058,0,0,0,1.262,7.3l1.589-1.032a21.572,21.572,0,0,1-1-5.323Z" transform="translate(-354.114 -1175.296)" fill="#494642"/>
        </g>
      </g>
      <g id="Group_1089" data-name="Group 1089" transform="translate(395.775 770.841)">
        <g id="Group_1088" data-name="Group 1088" clip-path="url(#clip-path-2)">
          <g id="Group_1075" data-name="Group 1075" transform="translate(-19.121 -7.966)">
            <path id="Path_985" data-name="Path 985" d="M495.827,1424.99a.55.55,0,0,1-.392-.937L527.071,1392a.55.55,0,0,1,.783.773l-31.635,32.057A.547.547,0,0,1,495.827,1424.99Z" transform="translate(-495.277 -1391.832)" fill="#494642"/>
          </g>
          <g id="Group_1076" data-name="Group 1076" transform="translate(-14.33 -8.769)">
            <path id="Path_986" data-name="Path 986" d="M510.64,1428.038a.55.55,0,0,1-.391-.936l37.093-37.588a.55.55,0,1,1,.783.773l-37.093,37.588A.548.548,0,0,1,510.64,1428.038Z" transform="translate(-510.09 -1389.35)" fill="#494642"/>
          </g>
          <g id="Group_1077" data-name="Group 1077" transform="translate(-9.557 -6.763)">
            <path id="Path_987" data-name="Path 987" d="M525.4,1436.944a.55.55,0,0,1-.391-.936l39.762-40.292a.55.55,0,1,1,.783.773l-39.762,40.292A.549.549,0,0,1,525.4,1436.944Z" transform="translate(-524.847 -1395.551)" fill="#494642"/>
          </g>
          <g id="Group_1078" data-name="Group 1078" transform="translate(-7.653 -2.997)">
            <path id="Path_988" data-name="Path 988" d="M531.284,1452.474a.55.55,0,0,1-.389-.939l44.179-44.179a.55.55,0,0,1,.778.778l-44.179,44.179A.548.548,0,0,1,531.284,1452.474Z" transform="translate(-530.734 -1407.195)" fill="#494642"/>
          </g>
          <g id="Group_1079" data-name="Group 1079" transform="translate(-1.526 -9.317)">
            <path id="Path_989" data-name="Path 989" d="M550.227,1442.359a.55.55,0,0,1-.389-.939l53.6-53.6a.55.55,0,1,1,.778.778l-53.6,53.6A.548.548,0,0,1,550.227,1442.359Z" transform="translate(-549.677 -1387.656)" fill="#494642"/>
          </g>
          <g id="Group_1080" data-name="Group 1080" transform="translate(-1.853 -9.914)">
            <path id="Path_990" data-name="Path 990" d="M549.217,1451.208a.55.55,0,0,1-.389-.939l64.3-64.3a.55.55,0,0,1,.778.778l-64.3,64.3A.549.549,0,0,1,549.217,1451.208Z" transform="translate(-548.667 -1385.809)" fill="#494642"/>
          </g>
          <g id="Group_1081" data-name="Group 1081" transform="translate(-3.303 -7.876)">
            <path id="Path_991" data-name="Path 991" d="M544.733,1466.343a.55.55,0,0,1-.389-.939l73.13-73.131a.55.55,0,1,1,.778.778l-73.13,73.131A.548.548,0,0,1,544.733,1466.343Z" transform="translate(-544.183 -1392.112)" fill="#494642"/>
          </g>
          <g id="Group_1082" data-name="Group 1082" transform="translate(-2.626 -7.806)">
            <path id="Path_992" data-name="Path 992" d="M546.827,1475.3a.55.55,0,0,1-.389-.939l81.874-81.874a.55.55,0,0,1,.778.778l-81.874,81.874A.549.549,0,0,1,546.827,1475.3Z" transform="translate(-546.277 -1392.329)" fill="#494642"/>
          </g>
          <g id="Group_1083" data-name="Group 1083" transform="translate(2.972 5.2)">
            <path id="Path_993" data-name="Path 993" d="M564.134,1515.963a.55.55,0,0,1-.389-.939l82.322-82.322a.55.55,0,1,1,.778.778L564.523,1515.8A.548.548,0,0,1,564.134,1515.963Z" transform="translate(-563.584 -1432.541)" fill="#494642"/>
          </g>
          <g id="Group_1084" data-name="Group 1084" transform="translate(0.169 -2.621)">
            <path id="Path_994" data-name="Path 994" d="M555.467,1492.951a.55.55,0,0,1-.389-.939l83.491-83.491a.55.55,0,1,1,.778.778l-83.491,83.491A.548.548,0,0,1,555.467,1492.951Z" transform="translate(-554.917 -1408.36)" fill="#494642"/>
          </g>
          <g id="Group_1085" data-name="Group 1085" transform="translate(4.571 19.14)">
            <path id="Path_995" data-name="Path 995" d="M569.079,1553.049a.55.55,0,0,1-.389-.939L645,1475.8a.55.55,0,0,1,.778.778l-76.308,76.308A.549.549,0,0,1,569.079,1553.049Z" transform="translate(-568.529 -1475.641)" fill="#494642"/>
          </g>
          <g id="Group_1086" data-name="Group 1086" transform="translate(6.918 22.329)">
            <path id="Path_996" data-name="Path 996" d="M576.333,1566.969a.55.55,0,0,1-.389-.939l80.369-80.369a.55.55,0,1,1,.778.778l-80.369,80.369A.548.548,0,0,1,576.333,1566.969Z" transform="translate(-575.783 -1485.5)" fill="#494642"/>
          </g>
          <g id="Group_1087" data-name="Group 1087" transform="translate(18.611 20.126)">
            <path id="Path_997" data-name="Path 997" d="M612.488,1560.158a.55.55,0,0,1-.389-.939l80.369-80.369a.55.55,0,0,1,.778.778L612.877,1560A.548.548,0,0,1,612.488,1560.158Z" transform="translate(-611.938 -1478.689)" fill="#494642"/>
          </g>
        </g>
      </g>
      <g id="Group_1101" data-name="Group 1101" transform="translate(616.3 560.686)">
        <g id="Group_1090" data-name="Group 1090" transform="translate(0 0)">
          <path id="Path_998" data-name="Path 998" d="M1263.372,855.229a186.6,186.6,0,0,1-25.712-2.2l-1.434-.235,1.23-.773a18.02,18.02,0,0,0,4.385-4.609c2.114-3.011,4.846-8.327,5.855-16.549,1.745-14.213-1.41-55.663-1.442-56.08l-.041-.534,72.809-7.555.016.594c0,.134.357,13.564.322,27.246-.071,27.876-1.653,29.632-2.173,30.208h0l-.728.81c-2.594,2.891-7.993,8.909-13.828,14.661-7.167,7.066-14.69,13.328-14.765,13.39l-.123.1-.158.021A212.435,212.435,0,0,1,1263.372,855.229Zm-24.26-3.088a182.043,182.043,0,0,0,24.26,1.987,212.033,212.033,0,0,0,23.913-1.472c1-.838,7.941-6.687,14.574-13.225,5.811-5.729,11.195-11.729,13.782-14.612l.729-.812h0c.547-.607,1.827-4.7,1.89-29.475.03-12.035-.24-23.874-.307-26.62l-70.563,7.322c.365,4.924,3.046,42.329,1.4,55.765C1247.19,844.01,1241.511,850.1,1239.112,852.142Z" transform="translate(-1236.226 -766.696)" fill="#494642"/>
        </g>
        <g id="Group_1096" data-name="Group 1096" transform="translate(19.587 45.945)">
          <g id="Group_1091" data-name="Group 1091">
            <rect id="Rectangle_165" data-name="Rectangle 165" width="45.22" height="1.1" transform="translate(0 1.201) rotate(-1.522)" fill="#494642"/>
          </g>
          <g id="Group_1092" data-name="Group 1092" transform="translate(0.136 5.09)">
            <rect id="Rectangle_166" data-name="Rectangle 166" width="45.22" height="1.1" transform="translate(0 1.201) rotate(-1.522)" fill="#494642"/>
          </g>
          <g id="Group_1093" data-name="Group 1093" transform="translate(0.272 10.18)">
            <rect id="Rectangle_167" data-name="Rectangle 167" width="45.22" height="1.1" transform="translate(0 1.201) rotate(-1.522)" fill="#494642"/>
          </g>
          <g id="Group_1094" data-name="Group 1094" transform="translate(0.408 15.713)">
            <rect id="Rectangle_168" data-name="Rectangle 168" width="28.576" height="1.1" transform="translate(0 0.759) rotate(-1.522)" fill="#494642"/>
          </g>
          <g id="Group_1095" data-name="Group 1095" transform="translate(0.544 20.806)">
            <rect id="Rectangle_169" data-name="Rectangle 169" width="28.458" height="1.1" transform="translate(0 0.756) rotate(-1.522)" fill="#494642"/>
          </g>
        </g>
        <g id="Group_1097" data-name="Group 1097" transform="translate(50.729 57.087)">
          <path id="Path_999" data-name="Path 999" d="M1393.772,972.949a.731.731,0,0,1-.407-.123.647.647,0,0,1-.248-.776l.087-.219a42.277,42.277,0,0,0,3.221-12.985,35.359,35.359,0,0,0-1.111-10.222l-.263-.917.925.232a33.714,33.714,0,0,0,11.656.356c4.955-.708,13.445-4.245,14.912-4.912l.4-.184.283.362a.567.567,0,0,1-.03.709c-.825.931-10.729,11.67-14.452,15.361-2.04,2.022-6.509,5.994-10.1,9.185-2.03,1.8-3.783,3.361-4.386,3.94h0A.706.706,0,0,1,1393.772,972.949Zm-.27-.988h0Zm3.093-22.768a35.922,35.922,0,0,1,.929,9.711,41.315,41.315,0,0,1-2.741,11.884c.813-.731,1.9-1.7,3.136-2.8,3.582-3.182,8.039-7.143,10.057-9.144,2.833-2.809,9.593-10.077,12.761-13.515-3.164,1.285-8.968,3.481-12.948,4.05A35.439,35.439,0,0,1,1396.594,949.193Zm26.4-4.809-.006,0Z" transform="translate(-1393.072 -943.198)" fill="#494642"/>
        </g>
        <g id="Group_1098" data-name="Group 1098" transform="translate(9.99 0)">
          <path id="Path_1000" data-name="Path 1000" d="M1267.672,782.211l-.558-7.961,72.81-7.555.211,10.387Zm.614-6.976.407,5.8,70.32-4.977-.165-8.146Z" transform="translate(-1267.114 -766.695)" fill="#494642"/>
        </g>
        <g id="Group_1100" data-name="Group 1100" transform="translate(21.308 18.799)">
          <g id="Group_1099" data-name="Group 1099">
            <path id="Path_1001" data-name="Path 1001" d="M1323.584,848.081l-21.364.555a9.982,9.982,0,0,1,.152-3.742c.885-2.913,4.845-2.6,6.981-3.839a2.77,2.77,0,0,0,1.3-2.2,7.114,7.114,0,1,1,4.3-.323,6.45,6.45,0,0,0,.491,1.817c1.1,2.495,5.835,1.06,7.692,3.355C1323.91,844.656,1323.584,848.081,1323.584,848.081Z" transform="translate(-1302.107 -824.819)" fill="#494642"/>
          </g>
        </g>
      </g>
      <g id="Group_1102" data-name="Group 1102" transform="translate(440.985 724.898)">
        <path id="Path_1002" data-name="Path 1002" d="M700.808,1287.674a6.63,6.63,0,1,1,6.63-6.63A6.637,6.637,0,0,1,700.808,1287.674Zm0-12.16a5.53,5.53,0,1,0,5.53,5.53A5.536,5.536,0,0,0,700.808,1275.514Z" transform="translate(-694.178 -1274.414)" fill="#494642"/>
      </g>
      <g id="Group_1103" data-name="Group 1103" transform="translate(626.326 531.094)">
        <path id="Path_1003" data-name="Path 1003" d="M1277.271,695.295a10.046,10.046,0,1,1,10.046-10.046A10.058,10.058,0,0,1,1277.271,695.295Zm0-18.993a8.946,8.946,0,1,0,8.946,8.946A8.956,8.956,0,0,0,1277.271,676.3Z" transform="translate(-1267.225 -675.202)" fill="#494642"/>
      </g>
      <g id="Group_1104" data-name="Group 1104" transform="translate(638.738 741.645)">
        <path id="Path_1004" data-name="Path 1004" d="M1358.957,1399.983a.66.66,0,0,1-.562-1c.26-.426,25.836-42.7,10.149-52.533a16.449,16.449,0,0,0-9.261-2.483,42.728,42.728,0,0,1-6.792,14.21c-3.907,5.549-8.179,9.325-11.72,10.358a5.567,5.567,0,0,1-6.1-1.62c-2.542-2.87-1.4-7.868,2.986-13.042a34.344,34.344,0,0,1,14.257-9.835,24.809,24.809,0,0,1,6.272-1.341l.028-.169c.018-.117,1.723-11.716-9.418-14.613-9.373-2.438-16.517,7.183-22.82,15.67-.763,1.027-1.484,2-2.21,2.95-1.677,2.2-2.933,3.049-4.07,2.752-1.794-.467-2.252-3.673-2.831-7.73s-1.3-9.111-3.552-10.754c-3.182-2.323-6.643.056-6.678.08a.66.66,0,0,1-.759-1.08c.042-.029,4.277-2.939,8.214-.066,2.7,1.971,3.434,7.1,4.081,11.634.406,2.848.912,6.393,1.857,6.639.186.05.932.028,2.687-2.275.721-.946,1.439-1.913,2.2-2.937,6.552-8.822,13.978-18.82,24.212-16.161,11.729,3.05,10.551,14.826,10.4,16a17.677,17.677,0,0,1,9.711,2.692c3.959,2.481,5.872,6.946,5.686,13.271-.145,4.932-1.567,11.022-4.228,18.1a155.524,155.524,0,0,1-11.182,22.971A.659.659,0,0,1,1358.957,1399.983Zm-1.051-55.941a23.624,23.624,0,0,0-5.556,1.238,32.963,32.963,0,0,0-13.684,9.442c-3.928,4.637-5.08,8.972-3.005,11.314a4.224,4.224,0,0,0,4.739,1.228c3.212-.937,7.328-4.619,11.011-9.85A42.732,42.732,0,0,0,1357.906,1344.041Z" transform="translate(-1305.598 -1326.195)" fill="#494642"/>
      </g>
      <g id="Group_1105" data-name="Group 1105" transform="translate(395.62 608.003)">
        <path id="Path_1005" data-name="Path 1005" d="M607.574,1007.23a.657.657,0,0,1-.272-.059c-.5-.228-12.306-5.692-10.086-14.414,1.092-4.289,6.968-8.778,12.651-13.12,4.365-3.335,8.488-6.484,10.283-9.327,1.122-1.777,1.426-3.292.93-4.632-1.553-4.2-10.835-7.049-23.682-11-8.365-2.573-18.776-5.774-29.8-10.228-5.538-2.238-9.456-4.859-11.642-7.792a9.2,9.2,0,0,1-1.585-8.6c3.073-9.553,21.029-17.381,33.128-14.44a.66.66,0,1,1-.312,1.283c-11.316-2.751-28.718,4.727-31.559,13.561a7.835,7.835,0,0,0,1.386,7.4c2.04,2.736,5.767,5.211,11.078,7.357,10.972,4.433,21.354,7.625,29.7,10.19,13.7,4.213,22.752,7,24.531,11.8.648,1.751.3,3.647-1.052,5.8-1.921,3.043-6.135,6.262-10.6,9.671-5.5,4.2-11.194,8.553-12.173,12.4-.809,3.177.492,6.3,3.865,9.275a25.092,25.092,0,0,0,5.486,3.612.66.66,0,0,1-.273,1.261Z" transform="translate(-553.916 -912.993)" fill="#494642"/>
      </g>
    </g>
  </g>
</svg>
