<svg id="Group_1107" data-name="Group 1107" xmlns="http://www.w3.org/2000/svg" width="346.647" height="282.622" viewBox="0 0 346.647 282.622">
  <path id="Path_1006" data-name="Path 1006" d="M443.3,152.808H130.259c-1.465,0-2.652,1.6-2.653,3.566v217.3c0,1.969,1.188,3.565,2.653,3.566H443.3a2.527,2.527,0,0,0,2.133-1.455,3.551,3.551,0,0,0,.336-.818,4.5,4.5,0,0,0,.184-1.293v-217.3C445.955,154.4,444.767,152.808,443.3,152.808Zm1.592,220.864c0,1.181-.713,2.138-1.592,2.14H130.259c-.879,0-1.59-.959-1.592-2.14v-217.3c0-1.181.713-2.138,1.592-2.14H443.3c.879,0,1.59.959,1.592,2.14Z" transform="translate(-121.378 -152.808)" fill="#e6e6e6"/>
  <path id="Path_40" data-name="Path 40" d="M314.821,298.378c-.708,0-1.282.771-1.282,1.723s.574,1.724,1.282,1.724h60.443c.708.016,1.292-.743,1.3-1.7s-.553-1.736-1.261-1.752H314.821Z" transform="translate(-241.543 -229.161)" fill="#e6e6e6"/>
  <path id="Path_40-2" data-name="Path 40" d="M314.821,265.378c-.708,0-1.282.771-1.282,1.723s.574,1.724,1.282,1.724H332.11c.708.016,1.291-.743,1.3-1.7s-.553-1.736-1.261-1.752H314.821Z" transform="translate(-241.543 -211.852)" fill="#e6e6e6"/>
  <path id="Path_40-3" data-name="Path 40" d="M314.821,332.378c-.708,0-1.282.771-1.282,1.723s.574,1.724,1.282,1.724h60.443c.708.016,1.292-.743,1.3-1.7s-.553-1.736-1.261-1.752H314.821Z" transform="translate(-241.543 -246.995)" fill="#e6e6e6"/>
  <path id="Path_40-4" data-name="Path 40" d="M722.233,298.378c.708,0,1.282.771,1.282,1.723s-.574,1.724-1.282,1.724H661.789c-.708.016-1.292-.743-1.3-1.7s.553-1.736,1.261-1.752h60.485Z" transform="translate(-465.767 -229.161)" fill="#e6e6e6"/>
  <path id="Path_40-5" data-name="Path 40" d="M801.079,265.378c.708,0,1.282.771,1.282,1.723s-.574,1.724-1.282,1.724H783.789c-.708.016-1.292-.743-1.3-1.7s.553-1.736,1.261-1.752h17.331Z" transform="translate(-544.613 -211.852)" fill="#e6e6e6"/>
  <path id="Path_40-6" data-name="Path 40" d="M722.233,332.378c.708,0,1.282.771,1.282,1.723s-.574,1.724-1.282,1.724H661.789c-.708.016-1.292-.743-1.3-1.7s.553-1.736,1.261-1.752h60.485Z" transform="translate(-465.767 -246.995)" fill="#e6e6e6"/>
  <path id="Path_78" data-name="Path 78" d="M389.3,439.379H306.235a2.874,2.874,0,0,1-2.933-2.805V412.3a2.874,2.874,0,0,1,2.933-2.805H389.3a2.874,2.874,0,0,1,2.933,2.805v24.269A2.875,2.875,0,0,1,389.3,439.379Z" transform="translate(-234.927 -287.445)" fill="#e6e6e6"/>
  <path id="Path_1007" data-name="Path 1007" d="M216.761,326.169a26.29,26.29,0,0,1-1.567,9.053c-.117.323-.241.637-.371.951H188.234c-.131-.314-.255-.628-.371-.951-2.779-7.576-1.814-16.668,2.432-22.9s10.9-8.312,16.756-5.249S216.763,317.722,216.761,326.169Z" transform="translate(-159.305 -232.993)" fill="#2f2e41"/>
  <ellipse id="Ellipse_30" data-name="Ellipse 30" cx="5.207" cy="6.999" rx="5.207" ry="6.999" transform="translate(37.403 80.991)" fill="#fff"/>
  <ellipse id="Ellipse_31" data-name="Ellipse 31" cx="1.736" cy="2.333" rx="1.736" ry="2.333" transform="translate(40.874 85.657)" fill="#3f3d56"/>
  <path id="Path_1008" data-name="Path 1008" d="M187.181,289.83c-1.23-7.405,2.7-14.888,8.782-16.713s12.007,2.7,13.237,10.1-2.8,10.136-8.88,11.961S188.411,297.235,187.181,289.83Z" transform="translate(-159.735 -215.699)" fill="#6c63ff"/>
  <path id="Path_1009" data-name="Path 1009" d="M203.236,235.808H159.375c-.977,0-1.768,1.065-1.769,2.377v58.96c0,1.313.792,2.377,1.769,2.377h43.861c.977,0,1.768-1.065,1.769-2.377v-58.96c0-1.313-.792-2.377-1.769-2.377Zm1.061,61.338c0,.787-.476,1.424-1.061,1.426H159.375c-.585,0-1.059-.64-1.061-1.426v-58.96c0-.787.476-1.424,1.061-1.426h43.861c.585,0,1.059.64,1.061,1.426Z" transform="translate(-140.767 -196.342)" fill="#3f3d56"/>
  <path id="Path_1010" data-name="Path 1010" d="M910.236,235.808H866.375c-.977,0-1.768,1.065-1.769,2.377v58.96c0,1.313.792,2.377,1.769,2.377h43.861c.977,0,1.768-1.065,1.769-2.377v-58.96c0-1.313-.792-2.377-1.769-2.377Zm1.061,61.338c0,.787-.476,1.424-1.061,1.426H866.375c-.585,0-1.059-.64-1.061-1.426v-58.96c0-.787.476-1.424,1.061-1.426h43.861c.585,0,1.059.64,1.061,1.426Z" transform="translate(-597.686 -196.342)" fill="#3f3d56"/>
  <rect id="Rectangle_170" data-name="Rectangle 170" width="317.288" height="0.951" transform="translate(7.289 18.225)" fill="#e6e6e6"/>
  <ellipse id="Ellipse_32" data-name="Ellipse 32" cx="3.183" cy="4.279" rx="3.183" ry="4.279" transform="translate(11.887 6.181)" fill="#e6e6e6"/>
  <ellipse id="Ellipse_33" data-name="Ellipse 33" cx="3.183" cy="4.279" rx="3.183" ry="4.279" transform="translate(22.145 6.181)" fill="#e6e6e6"/>
  <ellipse id="Ellipse_34" data-name="Ellipse 34" cx="3.183" cy="4.279" rx="3.183" ry="4.279" transform="translate(32.403 6.181)" fill="#e6e6e6"/>
  <path id="Path_1028" data-name="Path 1028" d="M4.3,0C5.858-.219,6.559,3.386,5.868,8.05S3.355,16.671,1.8,16.888-.457,13.5.234,8.836,2.746.215,4.3,0Z" transform="translate(48.838 101.584) rotate(-50.959)" fill="#2f2e41"/>
  <path id="Path_1029" data-name="Path 1029" d="M4.3,0C5.858-.219,6.559,3.386,5.868,8.05S3.355,16.671,1.8,16.888-.457,13.5.234,8.836,2.746.215,4.3,0Z" transform="translate(17.356 83.991) rotate(-50.959)" fill="#2f2e41"/>
  <path id="Path_78-2" data-name="Path 78" d="M354.46,407.5H271.392a2.874,2.874,0,0,1-2.933-2.805v-24.27a2.874,2.874,0,0,1,2.933-2.805H354.46a2.874,2.874,0,0,1,2.933,2.805v24.269A2.875,2.875,0,0,1,354.46,407.5Zm-83.067-28.759a1.724,1.724,0,0,0-1.76,1.683V404.69a1.724,1.724,0,0,0,1.76,1.683H354.46a1.724,1.724,0,0,0,1.76-1.683V380.422a1.724,1.724,0,0,0-1.76-1.683Z" transform="translate(-212.409 -270.723)" fill="#3f3d56"/>
  <ellipse id="Ellipse_37" data-name="Ellipse 37" cx="6.721" cy="9.034" rx="6.721" ry="9.034" transform="translate(64.421 112.605)" fill="#6c63ff"/>
  <path id="Path_40-7" data-name="Path 40" d="M349.821,395c-.708,0-1.282.771-1.282,1.723s.574,1.724,1.282,1.724h48.063c.708.016,1.292-.743,1.3-1.7s-.553-1.736-1.261-1.752H349.821Z" transform="translate(-264.162 -279.842)" fill="#3f3d56"/>
  <path id="Path_40-8" data-name="Path 40" d="M349.821,415c-.708,0-1.282.771-1.282,1.723s.574,1.724,1.282,1.724h48.063c.708.016,1.292-.743,1.3-1.7s-.553-1.736-1.261-1.752H349.821Z" transform="translate(-264.162 -290.333)" fill="#3f3d56"/>
  <path id="Path_1011" data-name="Path 1011" d="M603.592,388.192c-.879,0-1.591.959-1.592,2.14v44.7c0,1.181.713,2.138,1.592,2.14H732.7c.879,0,1.591-.959,1.592-2.14v-44.7c0-1.181-.713-2.138-1.592-2.14Z" transform="translate(-427.969 -276.27)" fill="#6c63ff"/>
  <path id="Path_1012" data-name="Path 1012" d="M730.761,557.843H601.653c-1.464,0-2.651-1.6-2.653-3.566V389.758c0-1.969,1.188-3.564,2.653-3.566H730.761c1.464,0,2.651,1.6,2.653,3.566V554.277C733.413,556.245,732.226,557.841,730.761,557.843ZM601.653,387.619c-.879,0-1.591.959-1.592,2.14V554.277c0,1.181.713,2.138,1.592,2.14H730.761c.879,0,1.591-.958,1.592-2.14V389.758c0-1.181-.713-2.138-1.592-2.14Z" transform="translate(-426.03 -275.221)" fill="#3f3d56"/>
  <path id="Path_1013" data-name="Path 1013" d="M750.334,530.508H711.6v.951h38.732c3.971,0,7.19,4.327,7.19,9.665s-3.219,9.665-7.19,9.665H691.725c-3.971,0-7.19-4.327-7.19-9.665s3.219-9.665,7.19-9.665h2.19v-.951h-2.19c-4.362,0-7.9,4.753-7.9,10.616s3.536,10.616,7.9,10.616h58.608c4.362,0,7.9-4.753,7.9-10.616s-3.536-10.616-7.9-10.616Z" transform="translate(-480.853 -350.916)" fill="#e6e6e6"/>
  <path id="Path_1014" data-name="Path 1014" d="M750.334,599.508H711.6v.951h38.732c3.971,0,7.19,4.327,7.19,9.665s-3.219,9.665-7.19,9.665H691.725c-3.971,0-7.19-4.327-7.19-9.665s3.219-9.665,7.19-9.665h2.19v-.951h-2.19c-4.362,0-7.9,4.753-7.9,10.616s3.536,10.616,7.9,10.616h58.608c4.362,0,7.9-4.753,7.9-10.616s-3.536-10.616-7.9-10.616Z" transform="translate(-480.853 -387.108)" fill="#e6e6e6"/>
  <path id="Path_1015" data-name="Path 1015" d="M750.334,668.508H711.6v.951h38.732c3.971,0,7.19,4.327,7.19,9.665s-3.219,9.665-7.19,9.665H691.725c-3.971,0-7.19-4.327-7.19-9.665s3.219-9.665,7.19-9.665h2.19v-.951h-2.19c-4.362,0-7.9,4.753-7.9,10.616s3.536,10.616,7.9,10.616h58.608c4.362,0,7.9-4.753,7.9-10.616s-3.536-10.616-7.9-10.616Z" transform="translate(-480.853 -423.299)" fill="#e6e6e6"/>
  <path id="Path_40-9" data-name="Path 40" d="M720.863,525.224c-1.162,0-2.1,1.266-2.1,2.827s.942,2.828,2.1,2.828h9.227c1.162.026,2.119-1.219,2.138-2.781s-.907-2.848-2.069-2.874h-9.3Z" transform="translate(-503.428 -348.145)" fill="#3f3d56"/>
  <path id="Path_40-10" data-name="Path 40" d="M720.863,595.224c-1.162,0-2.1,1.266-2.1,2.827s.942,2.828,2.1,2.828h9.227c1.162.026,2.119-1.219,2.138-2.781s-.907-2.848-2.069-2.874h-9.3Z" transform="translate(-503.428 -384.861)" fill="#3f3d56"/>
  <path id="Path_40-11" data-name="Path 40" d="M720.863,663.224c-1.162,0-2.1,1.266-2.1,2.827s.942,2.828,2.1,2.828h9.227c1.162.026,2.119-1.219,2.138-2.781s-.907-2.848-2.069-2.874h-9.3Z" transform="translate(-503.428 -420.527)" fill="#3f3d56"/>
  <path id="Path_40-12" data-name="Path 40" d="M710.516,546.888c-1.162,0-2.1,1.266-2.1,2.827s.942,2.828,2.1,2.828h52.735c1.162.026,2.119-1.219,2.138-2.781s-.907-2.848-2.069-2.874h-52.8Z" transform="translate(-496.741 -359.508)" fill="#e6e6e6"/>
  <path id="Path_40-13" data-name="Path 40" d="M710.516,615.888c-1.162,0-2.1,1.266-2.1,2.827s.942,2.828,2.1,2.828h52.735c1.162.026,2.119-1.219,2.138-2.781s-.907-2.848-2.069-2.874h-52.8Z" transform="translate(-496.741 -395.699)" fill="#e6e6e6"/>
  <path id="Path_40-14" data-name="Path 40" d="M710.516,684.888c-1.162,0-2.1,1.266-2.1,2.827s.942,2.828,2.1,2.828h52.735c1.162.026,2.119-1.219,2.138-2.781s-.907-2.848-2.069-2.874h-52.8Z" transform="translate(-496.741 -431.891)" fill="#e6e6e6"/>
  <path id="Path_1016" data-name="Path 1016" d="M646.895,427.1c0,6.3-3.8,11.412-8.489,11.412s-8.489-5.109-8.489-11.412,3.8-11.412,8.489-11.412a7.535,7.535,0,0,1,6.013,3.328,13.606,13.606,0,0,1,2.476,8.084Z" transform="translate(-446.011 -290.692)" fill="#fff"/>
  <path id="Path_40-15" data-name="Path 40" d="M693.114,420.746c-1.162,0-2.1,1.266-2.1,2.827s.942,2.828,2.1,2.828h52.735c1.162.026,2.119-1.219,2.138-2.781s-.907-2.848-2.069-2.874h-52.8Z" transform="translate(-485.495 -293.345)" fill="#fff"/>
  <path id="Path_40-16" data-name="Path 40" d="M693.114,446.746c-1.162,0-2.1,1.266-2.1,2.827s.942,2.828,2.1,2.828h86.692c1.162.026,2.119-1.219,2.138-2.781s-.907-2.848-2.069-2.874H693.114Z" transform="translate(-485.495 -306.982)" fill="#fff"/>
  <path id="Path_1017" data-name="Path 1017" d="M1026,472.365a149.827,149.827,0,0,1-3.955,31.444c-.053.233-.113.466-.17.7h-14.75c.014-.209.032-.447.046-.7,0-.081.011-.162.014-.247h4.531c.879,0,1.59-.959,1.592-2.14V396.368c.347,1.018.7,2.073,1.061,3.172C1019.991,416.7,1026.683,443.5,1026,472.365Z" transform="translate(-689.794 -280.558)" fill="#e6e6e6"/>
  <path id="Path_1018" data-name="Path 1018" d="M1036.435,548.3c-.123.236-.252.472-.383.705h-11.066c.084-.2.181-.437.294-.705,1.828-4.435,7.239-17.7,12.262-31.444,5.4-14.773,10.35-30.108,9.933-35.657C1047.6,482.455,1051.339,520.612,1036.435,548.3Z" transform="translate(-701.336 -325.056)" fill="#e6e6e6"/>
  <path id="Path_1019" data-name="Path 1019" d="M124.937,538.926a76.009,76.009,0,0,0,2.006,15.96c.028.12.057.238.087.358h7.488c-.008-.107-.016-.227-.024-.358-.5-7.715-3.378-54.673.064-62.7C134.257,492.834,124.357,514.411,124.937,538.926Z" transform="translate(-119.638 -330.814)" fill="#e6e6e6"/>
  <path id="Path_1020" data-name="Path 1020" d="M115.861,586.483c.063.12.128.24.194.358h5.617c-.043-.1-.092-.222-.149-.358-.928-2.251-3.675-8.982-6.224-15.96-2.74-7.5-5.254-15.282-5.042-18.1C110.192,553.059,108.3,572.427,115.861,586.483Z" transform="translate(-110 -362.412)" fill="#e6e6e6"/>
  <path id="Path_1030" data-name="Path 1030" d="M7.782.05c4.192-.342,7.5.762,7.4,2.466s-3.593,3.363-7.785,3.7S-.11,5.459,0,3.755,3.59.392,7.782.05Z" transform="translate(299.129 73.716) rotate(-14.482)" fill="#2f2e41"/>
  <path id="Path_1031" data-name="Path 1031" d="M9.893.138c5.308-.5,9.484.191,9.327,1.544s-4.588,2.857-9.9,3.357S-.16,4.849,0,3.5,4.585.638,9.893.138Z" transform="matrix(0.384, -0.923, 0.923, 0.384, 270.055, 84.636)" fill="#2f2e41"/>
  <ellipse id="Ellipse_40" data-name="Ellipse 40" cx="14.861" cy="19.976" rx="14.861" ry="19.976" transform="translate(277.501 52.056)" fill="#2f2e41"/>
  <path id="Path_1021" data-name="Path 1021" d="M917.954,348.173l-4.515.028c-3.3-4.373-2.816-7.883-.038-10.873l4.515-.028C915.835,340.745,915.28,344.321,917.954,348.173Z" transform="translate(-627.757 -249.576)" fill="#2f2e41"/>
  <path id="Path_1032" data-name="Path 1032" d="M4.3.075c2.26-.311,4,.23,3.88,1.209S6.139,3.31,3.879,3.621s-4-.23-3.88-1.209S2.043.386,4.3.075Z" transform="translate(282.537 100.22) rotate(-30.266)" fill="#2f2e41"/>
  <path id="Path_1022" data-name="Path 1022" d="M940.954,348.173l-4.515.028c-3.3-4.373-2.816-7.883-.038-10.873l4.515-.028C938.835,340.745,938.28,344.321,940.954,348.173Z" transform="translate(-642.621 -249.576)" fill="#2f2e41"/>
  <path id="Path_1033" data-name="Path 1033" d="M4.3.075c2.26-.311,4,.23,3.88,1.209S6.139,3.31,3.879,3.621s-4-.23-3.88-1.209S2.043.386,4.3.075Z" transform="translate(290.673 100.22) rotate(-30.266)" fill="#2f2e41"/>
  <ellipse id="Ellipse_43" data-name="Ellipse 43" cx="5.079" cy="6.827" rx="5.079" ry="6.827" transform="translate(286.889 60.15)" fill="#fff"/>
  <ellipse id="Ellipse_44" data-name="Ellipse 44" cx="1.693" cy="2.276" rx="1.693" ry="2.276" transform="translate(290.304 67.986)" fill="#3f3d56"/>
  <path id="Path_1023" data-name="Path 1023" d="M937.438,246.7c1.175-7.231-2.686-14.506-8.624-16.25s-11.7,2.706-12.878,9.937,2.765,9.871,8.7,11.614S936.263,253.928,937.438,246.7Z" transform="translate(-630.725 -193.332)" fill="#6c63ff"/>
  <path id="Path_1024" data-name="Path 1024" d="M932.649,319.283c.01,2.514-1.5,4.563-3.367,4.577s-3.394-2.012-3.405-4.526v-.009c-.009-2.514,1.505-3.044,3.375-3.056S932.64,316.769,932.649,319.283Z" transform="translate(-637.284 -238.546)" fill="#fff"/>
  <path id="Path_1025" data-name="Path 1025" d="M649.621,448.362v.024c-3.165,4.123-8.152,4.3-11.475.409-.007-.143-.011-.29-.011-.433,0-4.263,2.571-7.72,5.743-7.72S649.621,444.1,649.621,448.362Z" transform="translate(-451.323 -303.781)" fill="#2f2e41"/>
  <ellipse id="Ellipse_45" data-name="Ellipse 45" cx="1.963" cy="2.639" rx="1.963" ry="2.639" transform="translate(190.737 139.985)" fill="#fff"/>
  <ellipse id="Ellipse_46" data-name="Ellipse 46" cx="0.654" cy="0.88" rx="0.654" ry="0.88" transform="translate(192.046 141.745)" fill="#3f3d56"/>
  <path id="Path_1026" data-name="Path 1026" d="M638.462,434.652c-.464-2.792,1.019-5.613,3.311-6.3s4.527,1.017,4.991,3.809-1.056,3.822-3.348,4.51S638.926,437.444,638.462,434.652Z" transform="translate(-451.479 -297.254)" fill="#6c63ff"/>
  <path id="Path_1027" data-name="Path 1027" d="M783.492,355.423c-.815-4.786,1.041-10.034,4.165-12.482,1.435-1.124,3.236-1.711,4.808-.708a2.539,2.539,0,0,1,1.208,1.911,2.328,2.328,0,0,1-1.01,2.2,1.725,1.725,0,0,1-2.061,0,3.894,3.894,0,0,1-1.14-2.766,5.727,5.727,0,0,1,3.2-5.583c2.3-1.094,4.783-.583,7.166-.508a23.915,23.915,0,0,0,6.806-.795,29.415,29.415,0,0,0,13.671-8.39c.538-.564-.218-1.567-.75-1.009a28.16,28.16,0,0,1-13.789,8.169,26.162,26.162,0,0,1-7.8.492c-2.488-.162-5.187-.167-7.321,1.824a7.633,7.633,0,0,0-2.019,7.348,4.171,4.171,0,0,0,1.923,2.752,2.62,2.62,0,0,0,2.6-.269,3.537,3.537,0,0,0,1.523-2.633,4.307,4.307,0,0,0-.793-3.16,4.256,4.256,0,0,0-5.277-1.026c-3.892,1.873-6.6,7.442-6.356,12.987a16.392,16.392,0,0,0,.219,2.03C782.621,356.7,783.644,356.318,783.492,355.423Z" transform="translate(-544.451 -244.24)" fill="#3f3d56"/>
</svg>
