<svg xmlns="http://www.w3.org/2000/svg" width="445.621" height="185.208" viewBox="0 0 445.621 185.208"><defs><style>.a{fill:#ffb9b9;}.b{fill:#2f2e41;}.c{opacity:0.1;}.d{fill:#575a89;}.e{fill:#6c63ff;}.f{fill:#3f3d56;}.g{fill:#f2f2f2;}</style></defs><g transform="translate(0)"><path class="a" d="M62.99,389.521l-10.218-.681,3.406,15.326,11.58-4.768Z" transform="translate(-31.047 -228.762)"/><path class="b" d="M213.11,287.9l-23.841-23.16L175.645,275.3l-26.906,32.356,3.065,4.768,32.7-22.138,22.138,28.95,21.116-10.558Z" transform="translate(-87.506 -155.754)"/><path class="c" d="M213.11,287.9l-23.841-23.16L175.645,275.3l-26.906,32.356,3.065,4.768,32.7-22.138,22.138,28.95,21.116-10.558Z" transform="translate(-87.506 -155.754)"/><path class="a" d="M304.111,561.374l-3.065,2.384-24.863-8.515-5.79-2.384-11.58,2.384s0-9.536,10.9-9.2l11.239,2.725,13.283,1.022Z" transform="translate(-176.463 -413.897)"/><path class="b" d="M193,366.885l-7.493,4.768h-8.855l-41.211-15.326-60.284,10.9-1.7-12.942L128.629,330.1l48.364,16.007Z" transform="translate(-43.214 -194.205)"/><path class="a" d="M293.882,450.215l-5.109,1.022-1.113-1.3a6.882,6.882,0,0,1-.93-7.556h0l14.3-18.732s4.087-9.2,10.558-5.449-5.449,9.877-5.449,9.877l-7.152,11.239.681,5.79Z" transform="translate(-192.46 -338.16)"/><circle class="a" cx="13.283" cy="13.283" r="13.283" transform="translate(120.495 63.352)"/><path class="a" d="M369.258,429.889l6.131,14.645,14.645-6.131s-4.768-11.58-4.768-11.921S369.258,429.889,369.258,429.889Z" transform="translate(-241.44 -343.548)"/><path class="d" d="M369.433,486.773a76.315,76.315,0,0,1-3.743,23.6l-.995,3.06-4.768,21.8-5.109,1.362-3.746-4.768-7.493-5.449-5.449-8.855-4.673-7.786L332,507.307l-5.109-25.544-19.413-10.9-6.471-1.022,1.362-3.746,5.79-7.834,5.79-.681,1.7-1.362,1.362.681,5.449-3.065,1.7.681,9.959.926,6.049-1.267,8.7-4.669,3.563.582L364.7,460.306A76.251,76.251,0,0,1,369.433,486.773Z" transform="translate(-201.286 -357.105)"/><path class="b" d="M83.642,600.066s3.051-5.17,1.762-5.774-6.76-3.01-6.76-3.01l-8.025-2.659s-11.579-17.209-11.833-2.244,8.431,18.562,8.431,18.562,7.746,16.67,12.134,14.012,8.778-11.682,8.778-11.682S80.217,603.018,83.642,600.066Z" transform="translate(-58.78 -434.033)"/><path class="c" d="M345.387,284.4l-12.942,8.515-19.318,17.417-1.458-2.432-4.087-20.435H308.6l10.558-19.413Z" transform="translate(-180.956 -157.701)"/><path class="d" d="M304.074,263.09,293.516,282.5h-3.746l-2.384,6.812-5.449,1.363,14.645,16.007,20.776-18.732,12.942-8.515Z" transform="translate(-165.868 -154.781)"/><path class="b" d="M352.049,372.329l-1.439.554a2.009,2.009,0,0,1-.514-2.824l-2.66-.124a20.083,20.083,0,0,1,29.981-2.417c.121-.417,1.441.394,1.98,1.217.181-.679,1.419,2.6,1.856,4.921.2-.772.982.474.3,1.67.433-.063.628,1.043.293,1.66.473-.222.393,1.1-.12,1.982.675-.06-5.325,9.253-7.755,14.7-.705-3.241-1.5-6.655-3.773-9.069-.387-.41-.81-.784-1.233-1.157l-2.286-2.018c-2.659-2.347-5.077-5.243-8.619-6.12-2.434-.6-3.973-.739-2.647-3.482-1.2.5-2.318,1.244-3.527,1.708C351.9,373.142,352.073,372.713,352.049,372.329Z" transform="translate(-228.602 -305.571)"/><circle class="a" cx="2.384" cy="2.384" r="2.384" transform="translate(138.036 75.783)"/><rect class="e" width="11.527" height="11.527" transform="translate(73.46 24.582)"/><path class="f" d="M262.217,276.767h-14v-14h14Zm-13.389-.609h12.78v-12.78h-12.78Z" transform="translate(-170.231 -247.245)"/><rect class="e" width="11.527" height="11.527" transform="translate(30.318 60.21) rotate(74.063)"/><path class="f" d="M127.751,393.15l-3.843-13.459,13.459-3.843,3.843,13.459Zm-3.091-13.041,3.509,12.289,12.289-3.509L136.949,376.6Z" transform="translate(-97.096 -313.771)"/><rect class="e" width="11.527" height="11.527" transform="matrix(-0.683, 0.731, -0.731, -0.683, 38.489, 11.247)"/><path class="f" d="M112.781,262.449l9.557-10.226,10.226,9.557-9.557,10.226Zm9.586-9.366-8.726,9.337,9.337,8.726,8.726-9.337Z" transform="translate(-90.55 -241.04)"/><path class="f" d="M698.5,227.267H591.391v-2.208H542.825v2.208H435.276a7.245,7.245,0,0,0-7.245,7.245V381.175a7.245,7.245,0,0,0,7.245,7.245H698.5a7.245,7.245,0,0,0,7.245-7.245V234.512A7.245,7.245,0,0,0,698.5,227.267Z" transform="translate(-276.017 -225.059)"/><rect class="e" width="258.286" height="145.7" transform="translate(161.727 15.011)"/><circle class="e" cx="2.649" cy="2.649" r="2.649" transform="translate(288 5.74)"/><path class="c" d="M577.265,182.164H392.845V36.464Z" transform="translate(-231.118 -21.452)"/><circle class="g" cx="24.827" cy="24.827" r="24.827" transform="translate(177.314 100.154)"/><path class="f" d="M519.085,485.706a30.883,30.883,0,1,1,30.883-30.883A30.883,30.883,0,0,1,519.085,485.706Zm0-61.362a30.479,30.479,0,1,0,30.479,30.479A30.479,30.479,0,0,0,519.085,424.345Z" transform="translate(-311.417 -342.065)"/><rect class="f" width="24.127" height="5.041" transform="translate(350.914 93.588)"/><rect class="f" width="82.463" height="2.161" transform="translate(321.746 54.338)"/><rect class="f" width="82.463" height="2.161" transform="translate(321.746 61.179)"/><rect class="f" width="82.463" height="2.161" transform="translate(321.746 68.021)"/><rect class="f" width="82.463" height="2.161" transform="translate(321.746 74.863)"/><rect class="f" width="82.463" height="2.161" transform="translate(321.746 81.705)"/><rect class="g" width="10.083" height="10.083" transform="translate(394.126 17.967)"/><path class="f" d="M1034.5,287.07H1022.26V274.826H1034.5Zm-11.711-.532h11.179V275.359h-11.179Z" transform="translate(-625.613 -254.338)"/><path class="f" d="M697.222,605.891H672.015v-1.816a.36.36,0,0,0-.36-.36h-8.642a.36.36,0,0,0-.36.36v1.816h-5.4v-1.816a.36.36,0,0,0-.36-.36h-8.642a.36.36,0,0,0-.36.36v1.816h-5.4v-1.816a.36.36,0,0,0-.36-.36h-8.642a.36.36,0,0,0-.36.36v1.816h-5.4v-1.816a.36.36,0,0,0-.36-.36H618.72a.36.36,0,0,0-.36.36v1.816h-5.4v-1.816a.36.36,0,0,0-.36-.36h-8.642a.36.36,0,0,0-.36.36v1.816h-5.4v-1.816a.36.36,0,0,0-.36-.36h-8.642a.36.36,0,0,0-.36.36v1.816h-5.4v-1.816a.36.36,0,0,0-.36-.36h-67.7a.36.36,0,0,0-.36.36v1.816h-5.4v-1.816a.36.36,0,0,0-.36-.36h-8.642a.36.36,0,0,0-.36.36v1.816h-5.4v-1.816a.36.36,0,0,0-.36-.36h-8.642a.36.36,0,0,0-.36.36v1.816h-5.4v-1.816a.36.36,0,0,0-.36-.36h-8.642a.36.36,0,0,0-.36.36v1.816h-5.4v-1.816a.36.36,0,0,0-.36-.36h-8.642a.36.36,0,0,0-.36.36v1.816h-5.4v-1.816a.36.36,0,0,0-.36-.36h-8.642a.36.36,0,0,0-.36.36v1.816h-5.4v-1.816a.36.36,0,0,0-.36-.36h-8.642a.36.36,0,0,0-.36.36v1.816H409.862a8.642,8.642,0,0,0-8.642,8.642v3.908a8.642,8.642,0,0,0,8.642,8.642h287.36a8.642,8.642,0,0,0,8.642-8.642v-3.908A8.643,8.643,0,0,0,697.222,605.891Z" transform="translate(-260.244 -447.829)"/></g></svg>